<?xml version="1.0" encoding="UTF-8" standalone="no"?>
<!-- Created with Inkscape (http://www.inkscape.org/) -->

<svg
   xmlns:dc="http://purl.org/dc/elements/1.1/"
   xmlns:cc="http://creativecommons.org/ns#"
   xmlns:rdf="http://www.w3.org/1999/02/22-rdf-syntax-ns#"
   xmlns:svg="http://www.w3.org/2000/svg"
   xmlns="http://www.w3.org/2000/svg"
   xmlns:xlink="http://www.w3.org/1999/xlink"
   xmlns:sodipodi="http://sodipodi.sourceforge.net/DTD/sodipodi-0.dtd"
   xmlns:inkscape="http://www.inkscape.org/namespaces/inkscape"
   width="744.09448819"
   height="1052.3622047"
   id="svg2"
   version="1.1"
   inkscape:version="0.47 r22583"
   sodipodi:docname="logo.svg"
   inkscape:export-filename="C:\Users\yangyang\Desktop\logo.png"
   inkscape:export-xdpi="90"
   inkscape:export-ydpi="90">
  <sodipodi:namedview
     id="base"
     pagecolor="#ffffff"
     bordercolor="#666666"
     borderopacity="1.0"
     inkscape:pageopacity="0.0"
     inkscape:pageshadow="2"
     inkscape:zoom="0.44301471"
     inkscape:cx="355.34333"
     inkscape:cy="387.56004"
     inkscape:document-units="px"
     inkscape:current-layer="layer1"
     showgrid="false"
     inkscape:window-width="1280"
     inkscape:window-height="738"
     inkscape:window-x="-8"
     inkscape:window-y="-8"
     inkscape:window-maximized="1" />
  <defs
     id="defs4">
    <linearGradient
       id="linearGradient3634">
      <stop
         style="stop-color:#000000;stop-opacity:1;"
         offset="0"
         id="stop3636" />
      <stop
         style="stop-color:#000000;stop-opacity:0;"
         offset="1"
         id="stop3638" />
    </linearGradient>
    <inkscape:perspective
       id="perspective10"
       inkscape:persp3d-origin="372.04724 : 350.78739 : 1"
       inkscape:vp_z="744.09448 : 526.18109 : 1"
       inkscape:vp_y="0 : 1000 : 0"
       inkscape:vp_x="0 : 526.18109 : 1"
       sodipodi:type="inkscape:persp3d" />
    <radialGradient
       id="radialGradient3640"
       xlink:href="#linearGradient3634"
       inkscape:collect="always" />
    <filter
       inkscape:collect="always"
       id="filter4655"
       x="-0.030322701"
       width="1.0606454"
       y="-0.11510031"
       height="1.2302006">
      <feGaussianBlur
         inkscape:collect="always"
         stdDeviation="8.0900677"
         id="feGaussianBlur4657" />
    </filter>
    <filter
       inkscape:collect="always"
       id="filter4948">
      <feGaussianBlur
         inkscape:collect="always"
         stdDeviation="6.6013015"
         id="feGaussianBlur4950" />
    </filter>
    <filter
       inkscape:collect="always"
       id="filter4988">
      <feGaussianBlur
         inkscape:collect="always"
         stdDeviation="7.5077948"
         id="feGaussianBlur4990" />
    </filter>
    <inkscape:perspective
       id="perspective2970"
       inkscape:persp3d-origin="0.5 : 0.33333333 : 1"
       inkscape:vp_z="1 : 0.5 : 1"
       inkscape:vp_y="0 : 1000 : 0"
       inkscape:vp_x="0 : 0.5 : 1"
       sodipodi:type="inkscape:persp3d" />
    <inkscape:perspective
       id="perspective3010"
       inkscape:persp3d-origin="0.5 : 0.33333333 : 1"
       inkscape:vp_z="1 : 0.5 : 1"
       inkscape:vp_y="0 : 1000 : 0"
       inkscape:vp_x="0 : 0.5 : 1"
       sodipodi:type="inkscape:persp3d" />
  </defs>
  <metadata
     id="metadata7">
    <rdf:RDF>
      <cc:Work
         rdf:about="">
        <dc:format>image/svg+xml</dc:format>
        <dc:type
           rdf:resource="http://purl.org/dc/dcmitype/StillImage" />
        <dc:title></dc:title>
      </cc:Work>
    </rdf:RDF>
  </metadata>
  <g
     id="layer1"
     inkscape:groupmode="layer"
     inkscape:label="Layer 1">
    <text
       sodipodi:linespacing="125%"
       id="text3622"
       y="-292.65668"
       x="411.01535"
       style="font-size:10px;font-style:normal;font-variant:normal;font-weight:normal;font-stretch:normal;text-align:start;line-height:125%;writing-mode:lr-tb;text-anchor:start;fill:#000000;fill-opacity:1;stroke:none;font-family:Yahei Monaco;-inkscape-font-specification:Yahei Monaco"
       xml:space="preserve"><tspan
         style="fill:#000000;fill-opacity:1"
         id="tspan3624"
         sodipodi:role="line"
         x="411.01535"
         y="-292.65668" /></text>
    <rect
       ry="33.946865"
       y="625.5199"
       x="57.143852"
       height="314.89471"
       width="686.14459"
       id="rect3604"
       style="opacity:0.4142857;fill:#0000ff;stroke:#008080;stroke-width:0;stroke-linejoin:round;stroke-miterlimit:4;stroke-opacity:1;stroke-dasharray:none" />
    <rect
       style="opacity:0.20833333;fill:#000000;stroke:#008080;stroke-width:0;stroke-linejoin:round;stroke-miterlimit:4;stroke-opacity:1;stroke-dasharray:none;filter:url(#filter4988)"
       id="rect4970"
       width="686.14459"
       height="314.89471"
       x="88.745506"
       y="690.98047"
       ry="33.946865" />
    <g
       id="g3064"
       inkscape:export-filename="C:\Users\yangyang\Desktop\logo.png"
       inkscape:export-xdpi="90"
       inkscape:export-ydpi="90">
      <path
         transform="matrix(1.0834536,0,0,1,9.8760678,-458.96264)"
         d="m 206.125,683.46875 c -8.55842,0.48617 -17.01983,1.94338 -25.25,4.25 -8.22318,2.30467 -16.25443,5.4664 -24.09375,9.3125 -7.81692,3.83511 -15.37552,8.32246 -22.78125,13.34375 -7.43837,5.04343 -14.64997,10.57525 -21.71875,16.46875 -7.08153,5.90412 -14.058684,12.18072 -20.9375,18.71875 -6.867581,6.52735 -13.61496,13.30641 -20.3125,20.15625 -6.68119,6.83311 -13.308043,13.7481 -19.875,20.625 A 26.021826,26.021826 0 0 0 48.3125,818.75 l 0.0625,0.0937 a 26.021826,26.021826 0 0 0 40.46875,3.53125 c 6.563721,-6.87351 13.04351,-13.67936 19.4375,-20.21875 6.40583,-6.55149 12.76425,-12.85443 19,-18.78125 6.22435,-5.91598 12.35343,-11.44836 18.375,-16.46875 5.9964,-4.9994 11.88268,-9.50273 17.59375,-13.375 5.69594,-3.862 11.24687,-7.12615 16.53125,-9.71875 5.28991,-2.59532 10.33198,-4.51416 15.1875,-5.875 4.81444,-1.34931 9.47714,-2.14399 14.09375,-2.40625 4.62848,-0.26294 9.16389,-0.006 13.8125,0.78125 4.66122,0.78917 9.52241,2.12859 14.59375,4.09375 5.05068,1.95715 10.36809,4.57674 15.875,7.8125 5.52953,3.24904 11.25221,7.12186 17.09375,11.5625 5.87764,4.46809 11.91143,9.50906 18.03125,15 6.08702,5.46152 12.32131,11.43256 18.6875,17.75 6.32626,6.27782 12.73893,12.87919 19.21875,19.625 6.49171,6.75817 13.04463,13.6481 19.65625,20.53125 6.62426,6.89632 13.28641,13.77529 20.0625,20.5 6.76805,6.71671 13.64168,13.29595 20.625,19.5625 6.98586,6.26881 14.05992,12.19684 21.28125,17.6875 7.25492,5.51619 14.66179,10.57115 22.25,15.03125 7.60021,4.46717 15.39662,8.31995 23.4375,11.4375 8.03621,3.11574 16.29295,5.47782 24.71875,6.90625 8.39621,1.42397 16.92634,1.92084 25.46875,1.4375 8.57011,-0.4849 17.02986,-1.94799 25.25,-4.25 8.23337,-2.30572 16.26192,-5.4404 24.09375,-9.28125 7.82445,-3.83724 15.38073,-8.35853 22.78125,-13.375 7.39645,-5.01372 14.6159,-10.51657 21.71875,-16.4375 7.12204,-5.93692 14.09232,-12.2446 20.9375,-18.75 6.86923,-6.52826 13.61612,-13.30793 20.3125,-20.15625 6.68175,-6.83336 13.30831,-13.74837 19.875,-20.625 a 26.021826,26.021826 0 0 0 2.84375,-32.40625 l -0.0625,-0.0937 a 26.021826,26.021826 0 0 0 -40.46875,-3.53125 c -6.564,6.8738 -13.04411,13.68029 -19.4375,20.21875 -6.40697,6.55235 -12.76588,12.85658 -19,18.78125 -6.22648,5.91741 -12.35645,11.45171 -18.375,16.46875 -5.99981,5.00143 -11.88769,9.50711 -17.59375,13.375 -5.70112,3.86453 -11.25437,7.09963 -16.53125,9.6875 -5.29745,2.59795 -10.34225,4.54936 -15.1875,5.90625 -4.89832,1.37175 -9.57118,2.18161 -14.09375,2.4375 -4.55898,0.25796 -9.09798,-0.013 -13.8125,-0.8125 -4.67239,-0.79211 -9.53118,-2.13092 -14.59375,-4.09375 -5.05959,-1.96167 -10.37435,-4.57939 -15.875,-7.8125 -5.53573,-3.25372 -11.25645,-7.12417 -17.09375,-11.5625 -5.88152,-4.47194 -11.91413,-9.51077 -18.03125,-15 -6.08931,-5.46429 -12.29169,-11.4337 -18.65625,-17.75 -6.32732,-6.27933 -12.77087,-12.87975 -19.25,-19.625 -6.49185,-6.75848 -13.04449,-13.64811 -19.65625,-20.53125 -6.62356,-6.89544 -13.31659,-13.77472 -20.09375,-20.5 -6.76646,-6.71466 -13.60816,-13.29474 -20.59375,-19.5625 -6.98315,-6.26555 -14.056,-12.19499 -21.28125,-17.6875 -7.25072,-5.51188 -14.65564,-10.56896 -22.25,-15.03125 -7.59393,-4.46205 -15.38773,-8.3182 -23.4375,-11.4375 -8.02741,-3.11064 -16.28174,-5.47782 -24.71875,-6.90625 -8.38259,-1.41911 -16.91335,-1.92351 -25.46875,-1.4375 z"
         id="path4918"
         style="font-size:medium;font-style:normal;font-variant:normal;font-weight:normal;font-stretch:normal;text-indent:0;text-align:start;text-decoration:none;line-height:normal;letter-spacing:normal;word-spacing:normal;text-transform:none;direction:ltr;block-progression:tb;writing-mode:lr-tb;text-anchor:start;color:#000000;fill:#ffffff;fill-opacity:1;fill-rule:nonzero;stroke:none;stroke-width:0;marker:none;visibility:visible;display:inline;overflow:visible;filter:url(#filter4948);enable-background:accumulate;font-family:Bitstream Vera Sans;-inkscape-font-specification:Bitstream Vera Sans"
         inkscape:original="M 207.59375 709.4375 C 201.03826 709.80989 194.46126 710.94412 187.90625 712.78125 C 181.35127 714.61838 174.80416 717.15942 168.25 720.375 C 161.69586 723.59057 155.14712 727.46288 148.59375 731.90625 C 142.04039 736.34962 135.49026 741.38048 128.9375 746.84375 C 122.38473 752.30702 115.83359 758.20977 109.28125 764.4375 C 102.72892 770.66522 96.177005 777.20525 89.625 783.90625 C 83.072998 790.60723 76.520475 797.45155 69.96875 804.3125 L 70.03125 804.40625 C 76.582973 797.5453 83.136054 790.66917 89.6875 783.96875 C 96.238945 777.26833 102.79264 770.72656 109.34375 764.5 C 115.89487 758.27343 122.44931 752.36778 129 746.90625 C 135.55068 741.44472 142.10617 736.44115 148.65625 732 C 155.20632 727.55887 161.7632 723.68194 168.3125 720.46875 C 174.8618 717.25555 181.38904 714.71031 187.9375 712.875 C 194.48595 711.03971 201.04578 709.93447 207.59375 709.5625 C 214.14169 709.19052 220.67061 709.5477 227.21875 710.65625 C 233.76687 711.76488 240.32613 713.61854 246.875 716.15625 C 253.42386 718.69395 259.98154 721.93276 266.53125 725.78125 C 273.08096 729.62972 279.63708 734.08299 286.1875 739.0625 C 292.7379 744.04201 299.29282 749.5285 305.84375 755.40625 C 312.39466 761.28399 318.91746 767.56137 325.46875 774.0625 C 332.02005 780.56364 338.57342 787.30449 345.125 794.125 C 351.67659 800.94551 358.22938 807.8353 364.78125 814.65625 C 371.33311 821.4772 377.88534 828.21628 384.4375 834.71875 C 390.98966 841.22121 397.54123 847.49504 404.09375 853.375 C 410.64629 859.25496 417.19697 864.73622 423.75 869.71875 C 430.30305 874.70128 436.88376 879.17918 443.4375 883.03125 C 449.99124 886.88334 456.53917 890.11496 463.09375 892.65625 C 469.64834 895.19755 476.1947 897.04493 482.75 898.15625 C 489.30533 899.26801 495.85077 899.65217 502.40625 899.28125 C 508.96176 898.91034 515.53876 897.77319 522.09375 895.9375 C 528.64875 894.1018 535.19585 891.55801 541.75 888.34375 C 548.30415 885.12949 554.85289 881.25472 561.40625 876.8125 C 567.95962 872.37026 574.50974 867.36862 581.0625 861.90625 C 587.61527 856.44388 594.16641 850.50835 600.71875 844.28125 C 607.27108 838.05416 613.82299 831.51317 620.375 824.8125 C 626.927 818.11183 633.47953 811.2672 640.03125 804.40625 L 639.96875 804.3125 C 633.41703 811.17345 626.86394 818.04991 620.3125 824.75 C 613.76105 831.45011 607.20736 837.99282 600.65625 844.21875 C 594.10513 850.44469 587.55069 856.35187 581 861.8125 C 574.44932 867.27313 567.89382 872.27875 561.34375 876.71875 C 554.79367 881.15875 548.23679 885.03812 541.6875 888.25 C 535.13819 891.46188 528.61094 894.00989 522.0625 895.84375 C 515.51403 897.67762 508.9542 898.81701 502.40625 899.1875 C 495.85829 899.558 489.32936 899.173 482.78125 898.0625 C 476.23311 896.9524 469.67385 895.10158 463.125 892.5625 C 456.57612 890.02341 450.01845 886.78721 443.46875 882.9375 C 436.91903 879.08779 430.36291 874.63678 423.8125 869.65625 C 417.26209 864.67572 410.70717 859.191 404.15625 853.3125 C 397.60533 847.43398 391.08253 841.15785 384.53125 834.65625 C 377.97995 828.15464 371.42658 821.41442 364.875 814.59375 C 358.32341 807.77308 351.77062 800.88329 345.21875 794.0625 C 338.66689 787.24171 332.11466 780.502 325.5625 774 C 319.01035 767.49801 312.45878 761.22295 305.90625 755.34375 C 299.35372 749.46456 292.80304 743.98151 286.25 739 C 279.69696 734.01849 273.11625 729.53835 266.5625 725.6875 C 260.00877 721.83665 253.46085 718.60242 246.90625 716.0625 C 240.35168 713.52259 233.80532 711.67235 227.25 710.5625 C 220.6947 709.45274 214.14925 709.0651 207.59375 709.4375 z "
         inkscape:radius="26.019224"
         sodipodi:type="inkscape:offset" />
      <g
         transform="translate(74.829875,-669.64316)"
         id="g4710">
        <g
           transform="translate(-88.033195,270.87137)"
           id="g4952">
          <g
             style="fill:#000000;filter:url(#filter4655)"
             id="g4625"
             transform="translate(-0.87005695,66.7868)">
            <path
               transform="translate(0,-168.63505)"
               d="m 141.25,730 c -1.91078,0.28148 -3.56732,1.50901 -5.40625,3.03125 a 2.8287099,2.8287099 0 0 0 -0.71875,0.90625 l -11.75,23.15625 -42.78125,0 a 2.8287099,2.8287099 0 0 0 -1.5625,0.5 c -2.358249,1.56328 -4.158412,3.26054 -4.875,5.625 -0.716588,2.36446 0.199511,4.977 1.84375,6.8125 A 2.8287099,2.8287099 0 0 0 78.09375,771 l 38.5625,0 -11.5625,21.75 -45.3125,0 a 2.8287099,2.8287099 0 0 0 -1.375,0.375 c -2.769827,1.53107 -4.882392,3.14257 -5.6875,5.75 -0.402554,1.30372 -0.295117,2.80478 0.25,4.03125 0.545117,1.22647 1.424912,2.18997 2.46875,3.0625 a 2.8287099,2.8287099 0 0 0 1.8125,0.6875 l 39.5,0 -7.375,12.15625 a 2.8287099,2.8287099 0 0 0 -0.03125,0.0312 c -3.639776,6.23425 -5.439989,11.27924 -3.5,15.625 0.969994,2.17288 2.990954,3.72458 5.3125,4.46875 2.263931,0.7257 4.890538,0.84593 7.96875,0.625 l 0,0.0312 49.46875,0 c 1.71885,10e-6 2.90696,0.14492 3.78125,0.3125 -0.38559,0.44722 -0.67369,0.81597 -1.5,1.5 -9.50986,7.87214 -22.63829,16.73388 -39.03125,26.4375 C 100.12535,862.66763 90.175799,858.67363 82.15625,856 a 2.8287099,2.8287099 0 0 0 -1.8125,0 c -3.097808,1.02873 -5.577943,2.38417 -6.75,4.96875 -1.172057,2.58458 -0.125311,5.50286 1.71875,7.75 a 2.8287099,2.8287099 0 0 0 1.15625,0.84375 c 18.337258,7.30233 41.32294,16.89809 69,28.78125 a 2.8287099,2.8287099 0 0 0 1.625,0.1875 c 3.0397,-0.53181 5.65392,-1.68505 7.09375,-4.0625 1.43983,-2.37745 1.16958,-5.31863 0.0312,-8.0625 a 2.8287099,2.8287099 0 0 0 -1.5,-1.5 l -26.53125,-11.5 c 10.89797,-6.40035 23.00475,-15.05291 36.53125,-26.25 a 2.8287099,2.8287099 0 0 0 0.21875,-0.21875 c 2.54947,-2.64984 4.41509,-5.07696 5.53125,-7.46875 1.11616,-2.39179 1.49113,-5.01413 0.46875,-7.3125 -1.02238,-2.29837 -3.14828,-3.765 -5.6875,-4.71875 -2.53922,-0.95375 -5.65725,-1.47937 -9.46875,-1.71875 a 2.8287099,2.8287099 0 0 0 -0.1875,-0.0312 l -49.46875,0 a 2.8287099,2.8287099 0 0 0 -0.375,0.0312 c -1.52027,0.20219 -2.61945,0.15421 -3.1875,0.0312 -0.568045,-0.12296 -0.47671,-0.14978 -0.40625,-0.0312 0.0705,0.11853 -0.0604,-0.003 0.0937,-0.71875 0.14949,-0.69415 0.60615,-1.86584 1.375,-3.25 l 0.0625,-0.0937 9.09375,-15 87.46875,0 a 2.8287099,2.8287099 0 0 0 1.375,-0.375 c 2.76974,-1.53101 4.88241,-3.14261 5.6875,-5.75 0.40255,-1.30369 0.29506,-2.80478 -0.25,-4.03125 -0.54506,-1.22647 -1.42497,-2.18992 -2.46875,-3.0625 a 2.8287099,2.8287099 0 0 0 -1.8125,-0.6875 l -81.875,0 11.5625,-21.75 71.3125,0 a 2.8287099,2.8287099 0 0 0 1.5625,-0.5 c 2.35817,-1.56318 4.15843,-3.26058 4.875,-5.625 0.71657,-2.36442 -0.19969,-4.97689 -1.84375,-6.8125 a 2.8287099,2.8287099 0 0 0 -2.09375,-0.96875 l -67.0625,0 9.9375,-19.1875 a 2.8287099,2.8287099 0 0 0 0.3125,-1.46875 c -0.075,-1.38112 -0.26255,-2.59977 -0.875,-3.78125 -0.61245,-1.18148 -1.91406,-2.31359 -3.34375,-2.59375 -0.71358,-0.13983 -1.36307,-0.15633 -2,-0.0625 z"
               id="path4627"
               style="font-size:98.47740936px;font-style:italic;font-variant:normal;font-weight:normal;font-stretch:normal;text-align:start;line-height:125%;writing-mode:lr-tb;text-anchor:start;opacity:0.83333333;fill:#000000;fill-opacity:1;stroke:none;font-family:YouYuan;-inkscape-font-specification:YouYuan Italic"
               inkscape:original="M 142.71875 732.84375 C 141.55191 732.6151 139.86587 733.38966 137.65625 735.21875 L 125.125 759.9375 L 80.59375 759.9375 C 76.454589 762.68134 75.636003 765.41262 78.09375 768.15625 L 121.375 768.15625 L 106.78125 795.59375 L 59.78125 795.59375 C 54.817506 798.33755 53.967669 801.06884 57.25 803.8125 L 101.78125 803.8125 L 91.78125 820.28125 C 84.839712 832.1708 87.300266 837.66463 99.125 836.75 L 148.59375 836.75 C 156.83964 836.75004 158.21156 839.02089 152.6875 843.59375 C 142.74384 851.82498 129.19449 860.97092 112.09375 871.03125 C 99.756846 865.5438 89.479865 861.43125 81.25 858.6875 C 75.741869 860.51666 74.497897 863.27919 77.5 866.9375 C 95.873121 874.25411 118.90184 883.86047 146.59375 895.75 C 151.82148 894.83539 153.49086 892.07288 151.59375 887.5 L 119.9375 873.78125 C 131.7943 867.3792 145.4384 857.77287 160.90625 844.96875 C 170.58554 834.90843 168.15623 829.44586 153.59375 828.53125 L 104.125 828.53125 C 97.24788 829.44586 95.607821 826.68334 99.21875 820.28125 L 109.21875 803.8125 L 198.25 803.8125 C 203.21354 801.06884 204.06338 798.33755 200.78125 795.59375 L 114.1875 795.59375 L 128.78125 768.15625 L 201.78125 768.15625 C 205.92021 765.41262 206.73877 762.68134 204.28125 759.9375 L 132.5625 759.9375 L 144.65625 736.59375 C 144.53217 734.30737 143.88559 733.0724 142.71875 732.84375 z "
               inkscape:radius="2.8284271"
               sodipodi:type="inkscape:offset" />
            <path
               transform="translate(0,-170.93388)"
               d="m 311.625,732.1875 c -19.64376,2.72131 -43.27303,5.02114 -70.875,6.84375 -0.0632,-0.005 -0.16074,0 -0.125,0 0.0722,0 -0.0998,0.0222 -0.25,0.0312 -0.093,0.006 -0.20052,0.006 -0.15625,0 l 0,0.0312 a 2.8291126,2.8291126 0 0 0 -1.03125,0.3125 c -2.78825,1.54127 -4.95462,3.19786 -5.78125,5.875 -0.4288,1.38873 -0.31631,2.94463 0.25,4.21875 0.55599,1.25092 1.45351,2.25541 2.53125,3.15625 a 2.8291126,2.8291126 0 0 0 0.40625,0.28125 c -0.10522,-0.0611 0.48775,0.23326 0.375,0.1875 -0.11275,-0.0458 0.5243,0.18576 0.40625,0.15625 -0.11805,-0.0295 0.55852,0.0752 0.4375,0.0625 -0.0372,-0.004 0.0582,-0.001 0.125,0 0.0167,3.2e-4 0.0117,-5.2e-4 0.0312,0 0.15658,0.004 0.32483,-0.003 0.25,0 0.064,9.3e-4 0.16079,-0.002 0.125,0 -6.4e-4,5.1e-4 0.0402,-6e-4 0.0312,0 a 2.8291126,2.8291126 0 0 0 0.0312,0 c 9.4916,-0.78906 19.00933,-1.58508 28.5,-2.375 l -7.25,23.71875 -34.84375,0 0,0.0312 c -0.13133,9.7e-4 -0.2232,0.004 -0.21875,0 6.4e-4,-5.1e-4 -0.0402,6e-4 -0.0312,0 a 2.8291126,2.8291126 0 0 0 -0.6875,0.125 c 0.12441,-0.0402 -0.55444,0.21472 -0.4375,0.15625 0.099,-0.0495 -0.24293,0.18386 -0.3125,0.21875 -0.0127,0.006 -0.0789,0.0429 -0.0625,0.0312 -2.34679,1.56461 -4.19388,3.2967 -4.9375,5.71875 -0.75531,2.46013 0.17196,5.16135 1.875,7.0625 a 2.8291126,2.8291126 0 0 0 0.46875,0.4375 c -0.0164,-0.0116 0.0498,0.0249 0.0625,0.0312 0.0696,0.0349 0.41145,0.26823 0.3125,0.21875 0.0116,0.008 0.0805,0.0403 0.0625,0.0312 0.0702,0.0223 0.48083,0.1592 0.375,0.125 0.0115,0.006 0.0811,0.0372 0.0625,0.0312 a 2.8291126,2.8291126 0 0 0 0.6875,0.125 c -0.009,-6e-4 0.0319,5.1e-4 0.0312,0 -0.004,-0.004 0.0874,-9.7e-4 0.21875,0 l 0,0.0312 30.15625,0 c -14.34772,22.37544 -32.3269,42.08138 -54.25,58.96875 a 2.8291126,2.8291126 0 0 0 -0.125,0.125 2.8291126,2.8291126 0 0 0 -0.15625,0.125 c -0.0335,0.0298 -0.0803,0.0803 -0.0625,0.0625 a 2.8291126,2.8291126 0 0 0 -0.0625,0.0937 c -0.071,0.0789 -0.15713,0.16392 -0.125,0.125 a 2.8291126,2.8291126 0 0 0 -0.0625,0.0625 2.8291126,2.8291126 0 0 0 0,0.0312 2.8291126,2.8291126 0 0 0 -0.0937,0.15625 c -0.0848,0.14402 -0.19111,0.28846 -0.15625,0.21875 a 2.8291126,2.8291126 0 0 0 -0.0312,0.0937 c -0.0421,0.11487 -0.15666,0.4417 -0.125,0.34375 -0.54489,1.16582 -0.99048,2.27581 -1.1875,3.375 -0.22097,1.23279 -0.22716,2.65876 0.5625,4 0.80436,1.36619 2.2707,2.09469 3.5625,2.3125 1.314,0.22155 2.51169,0.0827 3.8125,-0.1875 a 2.8291126,2.8291126 0 0 0 0.3125,-0.0937 c -0.12441,0.0402 0.55444,-0.21472 0.4375,-0.15625 -0.11694,0.0585 0.48181,-0.3254 0.375,-0.25 a 2.8291126,2.8291126 0 0 0 0.0312,-0.0312 c 15.49741,-11.25377 28.94575,-23.94092 40.46875,-37.90625 l -22.3125,72.9375 a 2.8291126,2.8291126 0 0 0 -0.0937,0.65625 c 6e-4,-0.009 -5.1e-4,0.0319 0,0.0312 6e-4,-0.009 -5.1e-4,0.0319 0,0.0312 6e-4,-0.009 -5.1e-4,0.0319 0,0.0312 0.003,0.11834 0.006,0.40198 0,0.3125 -5.1e-4,-6.4e-4 6e-4,0.0402 0,0.0312 -5.1e-4,-6.4e-4 6e-4,0.0402 0,0.0312 -5.1e-4,-6.4e-4 6e-4,0.0402 0,0.0312 a 2.8291126,2.8291126 0 0 0 0.0625,0.46875 c 0.32205,1.37302 0.72688,2.59737 1.59375,3.71875 0.90755,1.17401 2.45363,2.0625 4.03125,2.0625 3.01381,0 4.95738,-1.97889 7.09375,-4.5 a 2.8291126,2.8291126 0 0 0 0.28125,-0.40625 c -0.0474,0.0798 0.19485,-0.36565 0.15625,-0.28125 -0.0386,0.0844 0.15435,-0.40055 0.125,-0.3125 -0.009,0.0271 0.0183,-0.0445 0.0312,-0.0937 L 263.5,807.3125 c 3.57256,11.37661 7.15385,22.75323 10.71875,34.125 0.0158,0.0504 0.0155,0.10588 0.0312,0.15625 a 2.8291126,2.8291126 0 0 0 0.0312,0.125 c 0.007,0.0219 0.0244,0.0406 0.0312,0.0625 a 2.8291126,2.8291126 0 0 0 0,0.0625 c -0.0402,-0.12441 0.21472,0.55444 0.15625,0.4375 -0.0585,-0.11694 0.3254,0.48181 0.25,0.375 a 2.8291126,2.8291126 0 0 0 0.125,0.1875 c -0.0525,-0.0636 0.24584,0.27709 0.1875,0.21875 -0.0583,-0.0583 0.28237,0.24002 0.21875,0.1875 l 0,-0.0312 0.0312,0 c 1.07582,0.89559 2.22898,1.59757 3.53125,1.90625 1.38135,0.32743 2.93793,0.14907 4.21875,-0.5625 2.46291,-1.36827 3.62398,-3.84345 4.5625,-6.90625 A 2.8291126,2.8291126 0 0 0 287.6875,837 c -6e-4,0.009 5.1e-4,-0.0319 0,-0.0312 -6e-4,0.009 5.1e-4,-0.0319 0,-0.0312 -6e-4,0.009 5.1e-4,-0.0319 0,-0.0312 -0.006,0.0895 -0.003,-0.19416 0,-0.3125 5.1e-4,6.4e-4 -6e-4,-0.0402 0,-0.0312 5.1e-4,6.4e-4 -6e-4,-0.0402 0,-0.0312 5.1e-4,6.4e-4 -6e-4,-0.0402 0,-0.0312 a 2.8291126,2.8291126 0 0 0 -0.0937,-0.5625 c -3.99683,-14.42909 -9.13407,-30.14086 -15.21875,-46.875 l 29.0625,0 0,-0.0312 c 0.14103,-3.2e-4 0.28138,-0.004 0.21875,0 -6.4e-4,5.1e-4 0.0402,-6e-4 0.0312,0 a 2.8291126,2.8291126 0 0 0 0.6875,-0.125 c -0.12441,0.0402 0.55444,-0.21472 0.4375,-0.15625 -0.099,0.0495 0.24293,-0.18386 0.3125,-0.21875 0.0201,-0.0133 0.0424,-0.0179 0.0625,-0.0312 2.34677,-1.56455 4.19387,-3.29665 4.9375,-5.71875 0.75533,-2.4602 -0.17224,-5.1614 -1.875,-7.0625 a 2.8291126,2.8291126 0 0 0 -0.46875,-0.4375 c 0.0164,0.0116 -0.0498,-0.0249 -0.0625,-0.0312 0.0904,0.0638 -0.24886,-0.17394 -0.3125,-0.21875 0.0175,0.009 -0.0502,-0.0273 -0.0625,-0.0312 0.0995,0.0497 -0.30924,-0.0918 -0.375,-0.125 -0.0115,-0.006 -0.0811,-0.0372 -0.0625,-0.0312 a 2.8291126,2.8291126 0 0 0 -0.6875,-0.125 c 0.009,6e-4 -0.0319,-5.1e-4 -0.0312,0 0.0626,0.004 -0.0777,3.2e-4 -0.21875,0 l 0,-0.0312 -30.46875,0 7.84375,-25.59375 c 8.80867,-0.85378 18.19687,-1.74203 28.4375,-2.59375 -6.4e-4,5.1e-4 0.0402,-6e-4 0.0312,0 a 2.8291126,2.8291126 0 0 0 0.6875,-0.125 c -0.12441,0.0402 0.55444,-0.21472 0.4375,-0.15625 -0.11694,0.0585 0.48181,-0.3254 0.375,-0.25 a 2.8291126,2.8291126 0 0 0 0.1875,-0.125 c 2.43229,-2.01343 4.17909,-3.89946 4.90625,-6.3125 0.37361,-1.23979 0.36285,-2.69322 -0.15625,-3.9375 -0.41155,-0.98648 -1.12813,-1.73332 -1.90625,-2.375 0.0525,0.0636 -0.24584,-0.27709 -0.1875,-0.21875 0.0583,0.0583 -0.28237,-0.24002 -0.21875,-0.1875 a 2.8291126,2.8291126 0 0 0 -0.21875,-0.125 2.8291126,2.8291126 0 0 0 -1.40625,-0.5 c 0.009,6e-4 -0.0319,-5.1e-4 -0.0312,0 0.009,6e-4 -0.0319,-5.1e-4 -0.0312,0 0.009,6e-4 -0.0319,-5.1e-4 -0.0312,0 0.0895,0.006 -0.19416,0.003 -0.3125,0 -0.0118,-3.2e-4 -0.025,4.2e-4 -0.0312,0 -0.006,-4.2e-4 -0.0319,5.1e-4 -0.0312,0 6.4e-4,-5.1e-4 -0.0402,6e-4 -0.0312,0 a 2.8291126,2.8291126 0 0 0 -0.1875,0 z m 55.875,0.65625 c -3.01369,0 -4.95913,1.98088 -7.09375,4.5 A 2.8291126,2.8291126 0 0 0 360.125,737.75 c 0.0474,-0.0798 -0.19485,0.36565 -0.15625,0.28125 0.0386,-0.0844 -0.15435,0.40055 -0.125,0.3125 0.009,-0.0271 -0.0183,0.0445 -0.0312,0.0937 l -40.375,131.6875 a 2.8291126,2.8291126 0 0 0 -0.0625,0.4375 2.8291126,2.8291126 0 0 0 -0.0312,0.125 c -0.59417,3.69643 -1.70016,6.41319 -3.0625,8.1875 -1.38081,1.79836 -2.96319,2.76933 -5.28125,3.21875 -4.59991,0.89182 -12.33795,-1.0601 -22.5625,-6.8125 -0.0222,-0.0125 -0.0403,-0.0187 -0.0625,-0.0312 -0.0754,-0.0464 -0.16548,-0.11399 -0.125,-0.0937 0.11694,0.0585 -0.56191,-0.19646 -0.4375,-0.15625 a 2.8291126,2.8291126 0 0 0 -0.53125,-0.125 c 0.0443,0.006 -0.0633,0.006 -0.15625,0 -0.15022,-0.009 -0.32217,-0.0312 -0.25,-0.0312 0.11685,0 -0.52204,0.047 -0.40625,0.0312 a 2.8291126,2.8291126 0 0 0 -0.125,0.0312 c -3.1487,0.55083 -5.93921,1.98924 -7.40625,4.59375 -1.36073,2.41577 -1.27168,5.28476 -0.5,8.25 -5.1e-4,-6.4e-4 6e-4,0.0402 0,0.0312 a 2.8291126,2.8291126 0 0 0 0.0937,0.59375 2.8291126,2.8291126 0 0 0 0.0937,0.3125 c -0.0325,-0.078 0.19621,0.32446 0.15625,0.25 -0.04,-0.0745 0.17203,0.35146 0.125,0.28125 -0.047,-0.0702 0.24115,0.28405 0.1875,0.21875 -0.0537,-0.0653 0.27851,0.27851 0.21875,0.21875 -0.0598,-0.0598 0.28405,0.2724 0.21875,0.21875 -0.0653,-0.0536 0.28896,0.23453 0.21875,0.1875 -0.0702,-0.047 0.35571,0.16496 0.28125,0.125 -0.0393,-0.0211 0.0341,0.0504 0.125,0.0937 0.0451,0.0215 0.08,0.0411 0.125,0.0625 11.32398,5.38477 20.16912,7.88999 27.25,7.0625 0.49662,0.0435 0.51215,0.038 0.0625,0 0.20221,0.0171 0.39269,-0.0117 0.59375,0 5.68369,0.3307 10.90904,-1.45125 14.875,-5.3125 4.08324,-3.97545 6.92983,-9.82881 8.84375,-17.40625 0.0135,-0.0536 0.0178,-0.10247 0.0312,-0.15625 L 373.09375,740.25 a 2.8291126,2.8291126 0 0 0 0.0937,-0.65625 c -6e-4,0.009 5.1e-4,-0.0319 0,-0.0312 -6e-4,0.009 5.1e-4,-0.0319 0,-0.0312 -6e-4,0.009 5.1e-4,-0.0319 0,-0.0312 -0.006,0.0895 -0.003,-0.19416 0,-0.3125 5.1e-4,6.4e-4 -6e-4,-0.0402 0,-0.0312 5.1e-4,6.4e-4 -6e-4,-0.0402 0,-0.0312 5.1e-4,6.4e-4 -6e-4,-0.0402 0,-0.0312 A 2.8291126,2.8291126 0 0 0 373.125,738.625 c -0.32208,-1.37281 -0.73052,-2.59955 -1.59375,-3.71875 -0.9061,-1.17479 -2.4595,-2.0625 -4.03125,-2.0625 z m -40.25,10.3125 c -2.46588,0 -4.40622,1.41783 -6.3125,3.28125 0.0687,-0.0464 -0.28269,0.24023 -0.21875,0.1875 -0.0719,0.0718 -0.14686,0.11434 -0.21875,0.1875 0.0586,-0.0586 -0.24023,0.28269 -0.1875,0.21875 0.0527,-0.0639 -0.23388,0.28744 -0.1875,0.21875 a 2.8291126,2.8291126 0 0 0 -0.375,0.78125 L 287.375,853.6875 a 2.8291126,2.8291126 0 0 0 -0.0937,0.65625 c 6e-4,-0.009 -5.1e-4,0.0319 0,0.0312 6e-4,-0.009 -5.1e-4,0.0319 0,0.0312 6e-4,-0.009 -5.1e-4,0.0319 0,0.0312 0.003,0.11834 0.006,0.40198 0,0.3125 -5.1e-4,-6.4e-4 6e-4,0.0402 0,0.0312 -5.1e-4,-6.4e-4 6e-4,0.0402 0,0.0312 -5.1e-4,-6.4e-4 6e-4,0.0402 0,0.0312 a 2.8291126,2.8291126 0 0 0 0.0625,0.46875 c 0.32098,1.36857 0.74652,2.62106 1.625,3.75 0.90061,1.15737 2.42342,2.03125 4,2.03125 3.01222,0 4.98094,-1.96985 7.125,-4.5 a 2.8291126,2.8291126 0 0 0 0.28125,-0.40625 c -0.0474,0.0798 0.19485,-0.36565 0.15625,-0.28125 -0.0386,0.0844 0.15435,-0.40055 0.125,-0.3125 -0.0118,0.0356 0.0103,-0.0473 0.0312,-0.125 L 333.03125,749.8125 a 2.8291126,2.8291126 0 0 0 0.0937,-0.625 c -6e-4,0.009 5.1e-4,-0.0319 0,-0.0312 -6e-4,0.009 5.1e-4,-0.0319 0,-0.0312 -6e-4,0.009 5.1e-4,-0.0319 0,-0.0312 -6e-4,0.009 5.1e-4,-0.0319 0,-0.0312 -0.005,0.0805 -0.002,-0.13734 0,-0.28125 5.1e-4,6.4e-4 -6e-4,-0.0402 0,-0.0312 5.1e-4,6.4e-4 -6e-4,-0.0402 0,-0.0312 5.1e-4,6.4e-4 -6e-4,-0.0402 0,-0.0312 5.1e-4,6.4e-4 -6e-4,-0.0402 0,-0.0312 a 2.8291126,2.8291126 0 0 0 -0.15625,-0.78125 c -0.44855,-1.2128 -1.04674,-2.30597 -1.96875,-3.1875 -0.98434,-0.94113 -2.42492,-1.53125 -3.75,-1.53125 z"
               id="path4629"
               style="font-size:98.47740936px;font-style:italic;font-variant:normal;font-weight:normal;font-stretch:normal;text-align:start;line-height:125%;writing-mode:lr-tb;text-anchor:start;opacity:0.83333333;fill:#000000;fill-opacity:1;stroke:none;font-family:YouYuan;-inkscape-font-specification:YouYuan Italic"
               inkscape:original="M 312 735 C 292.20084 737.74284 268.4557 740.04623 240.6875 741.875 A 0.23218147 0.23218147 0 0 0 240.65625 741.875 A 0.23218147 0.23218147 0 0 0 240.59375 741.875 A 0.23218147 0.23218147 0 0 0 240.5625 741.875 C 238.05698 743.25999 236.54778 744.65457 236.09375 746.125 C 235.86674 746.86021 235.92589 747.61454 236.25 748.34375 C 236.57411 749.07296 237.16108 749.79878 238 750.5 A 0.23218147 0.23218147 0 0 0 238.125 750.53125 A 0.23218147 0.23218147 0 0 0 238.15625 750.53125 A 0.23218147 0.23218147 0 0 0 238.1875 750.53125 C 249.07294 749.62632 259.95836 748.71778 270.84375 747.8125 L 261.75 777.53125 L 224.8125 777.53125 A 0.23218147 0.23218147 0 0 0 224.78125 777.53125 A 0.23218147 0.23218147 0 0 0 224.75 777.53125 A 0.23218147 0.23218147 0 0 0 224.6875 777.5625 C 222.59412 778.9502 221.29125 780.35494 220.84375 781.8125 C 220.39625 783.27006 220.83017 784.74568 222.09375 786.15625 A 0.23218147 0.23218147 0 0 0 222.15625 786.1875 A 0.23218147 0.23218147 0 0 0 222.21875 786.21875 A 0.23218147 0.23218147 0 0 0 222.25 786.21875 A 0.23218147 0.23218147 0 0 0 222.28125 786.21875 L 257.75 786.21875 C 242.80668 810.74175 223.51943 832.09201 199.90625 850.28125 A 0.23218147 0.23218147 0 0 0 199.875 850.34375 A 0.23218147 0.23218147 0 0 0 199.84375 850.375 C 199.28141 851.53034 198.93071 852.50991 198.78125 853.34375 C 198.63179 854.17759 198.69069 854.88089 199 855.40625 C 199.30931 855.93161 199.86395 856.25195 200.59375 856.375 C 201.32355 856.49805 202.25716 856.41968 203.375 856.1875 A 0.23218147 0.23218147 0 0 0 203.4375 856.15625 C 223.21036 841.79777 239.68331 825.19909 252.875 806.4375 L 225.96875 894.3125 A 0.23218147 0.23218147 0 0 0 225.96875 894.34375 A 0.23218147 0.23218147 0 0 0 225.96875 894.375 A 0.23218147 0.23218147 0 0 0 225.96875 894.40625 A 0.23218147 0.23218147 0 0 0 225.96875 894.4375 C 226.2414 895.59992 226.58869 896.48083 227.0625 897.09375 C 227.53631 897.70667 228.15545 898.03125 228.84375 898.03125 C 230.22035 898.03125 231.82808 896.83617 233.78125 894.53125 A 0.23218147 0.23218147 0 0 0 233.8125 894.4375 L 263.4375 797.75 C 267.95009 812.14478 272.488 826.54334 277 840.9375 A 0.23218147 0.23218147 0 0 0 277 840.96875 A 0.23218147 0.23218147 0 0 0 277.03125 841.03125 A 0.23218147 0.23218147 0 0 0 277.0625 841.0625 C 277.90142 841.76379 278.70034 842.19286 279.46875 842.375 C 280.23716 842.55714 280.98923 842.46432 281.65625 842.09375 C 282.9903 841.35262 284.0265 839.58153 284.875 836.8125 A 0.23218147 0.23218147 0 0 0 284.875 836.78125 A 0.23218147 0.23218147 0 0 0 284.875 836.75 A 0.23218147 0.23218147 0 0 0 284.875 836.71875 A 0.23218147 0.23218147 0 0 0 284.875 836.6875 C 280.59147 821.22337 275.08714 804.39165 268.375 786.21875 L 301.4375 786.21875 A 0.23218147 0.23218147 0 0 0 301.46875 786.21875 A 0.23218147 0.23218147 0 0 0 301.5 786.21875 A 0.23218147 0.23218147 0 0 0 301.5625 786.1875 C 303.65581 784.79989 304.95875 783.39506 305.40625 781.9375 C 305.85375 780.47994 305.41974 779.00441 304.15625 777.59375 A 0.23218147 0.23218147 0 0 0 304.09375 777.5625 A 0.23218147 0.23218147 0 0 0 304.03125 777.53125 A 0.23218147 0.23218147 0 0 0 304 777.53125 A 0.23218147 0.23218147 0 0 0 303.96875 777.53125 L 269.65625 777.53125 L 279.1875 746.4375 C 288.49796 745.52775 298.61918 744.59748 309.5625 743.6875 A 0.23218147 0.23218147 0 0 0 309.59375 743.6875 A 0.23218147 0.23218147 0 0 0 309.625 743.6875 A 0.23218147 0.23218147 0 0 0 309.6875 743.65625 C 311.9138 741.81334 313.24812 740.17681 313.6875 738.71875 C 313.90719 737.98972 313.88608 737.31331 313.625 736.6875 C 313.36392 736.06169 312.86759 735.50654 312.15625 735.03125 A 0.23218147 0.23218147 0 0 0 312.125 735 A 0.23218147 0.23218147 0 0 0 312.09375 735 A 0.23218147 0.23218147 0 0 0 312.0625 735 A 0.23218147 0.23218147 0 0 0 312.03125 735 A 0.23218147 0.23218147 0 0 0 312 735 z M 367.5 735.6875 C 366.11906 735.6875 364.51519 736.88308 362.5625 739.1875 A 0.23218147 0.23218147 0 0 0 362.53125 739.28125 L 322.15625 870.96875 A 0.23218147 0.23218147 0 0 0 322.15625 871 C 321.51767 875.08959 320.3 878.29013 318.53125 880.59375 C 316.7625 882.89737 314.44025 884.31101 311.53125 884.875 C 305.71326 886.00298 297.52568 883.65124 287 877.71875 A 0.23218147 0.23218147 0 0 0 286.9375 877.6875 A 0.23218147 0.23218147 0 0 0 286.90625 877.6875 A 0.23218147 0.23218147 0 0 0 286.84375 877.6875 C 284.18906 878.15191 282.34894 879.20139 281.40625 880.875 C 280.46356 882.54861 280.43142 884.78471 281.25 887.5625 A 0.23218147 0.23218147 0 0 0 281.25 887.59375 A 0.23218147 0.23218147 0 0 0 281.375 887.71875 C 292.86907 893.19761 301.64163 895.4983 307.78125 894.59375 C 307.80247 894.59561 307.82256 894.59196 307.84375 894.59375 C 313.09063 895.03814 317.53671 893.52563 321.09375 890.0625 C 324.66515 886.58538 327.35139 881.18615 329.1875 873.84375 L 370.375 739.40625 A 0.23218147 0.23218147 0 0 0 370.375 739.375 A 0.23218147 0.23218147 0 0 0 370.375 739.34375 A 0.23218147 0.23218147 0 0 0 370.375 739.3125 A 0.23218147 0.23218147 0 0 0 370.375 739.28125 C 370.1023 738.11892 369.75547 737.23984 369.28125 736.625 C 368.80703 736.01016 368.19047 735.6875 367.5 735.6875 z M 327.25 746 C 325.90178 746 324.34829 746.93206 322.53125 748.78125 A 0.23218147 0.23218147 0 0 0 322.46875 748.84375 A 0.23218147 0.23218147 0 0 0 322.46875 748.875 L 290.09375 854.53125 A 0.23218147 0.23218147 0 0 0 290.09375 854.5625 A 0.23218147 0.23218147 0 0 0 290.09375 854.59375 A 0.23218147 0.23218147 0 0 0 290.09375 854.625 A 0.23218147 0.23218147 0 0 0 290.09375 854.65625 C 290.36644 855.81892 290.71054 856.69956 291.1875 857.3125 C 291.66446 857.92544 292.27699 858.25 292.96875 858.25 C 294.35226 858.25 295.9841 857.05516 297.9375 854.75 A 0.23218147 0.23218147 0 0 0 297.96875 854.65625 L 330.3125 749 A 0.23218147 0.23218147 0 0 0 330.3125 748.96875 A 0.23218147 0.23218147 0 0 0 330.3125 748.9375 A 0.23218147 0.23218147 0 0 0 330.3125 748.90625 A 0.23218147 0.23218147 0 0 0 330.3125 748.875 A 0.23218147 0.23218147 0 0 0 330.3125 748.84375 C 329.96649 747.90821 329.53963 747.20481 329.03125 746.71875 C 328.52287 746.23269 327.92411 746 327.25 746 z "
               inkscape:radius="2.8288298"
               sodipodi:type="inkscape:offset" />
            <path
               transform="translate(-151.52288,-168.55503)"
               d="m 572.59375,736.6875 c -5.69541,8e-5 -10.88924,1.65718 -14.96875,5.03125 -4.07951,3.37407 -6.96793,8.26128 -8.8125,14.28125 l -36.96875,120.71875 c -1.97118,6.43312 -2.52629,11.8651 0.0937,16.28125 1.31002,2.20808 3.51358,3.86122 5.9375,4.6875 2.31539,0.78929 4.85661,0.9337 7.625,0.71875 l 0.375,0 103.53125,0 0,-0.0312 c 7.65783,0.85286 14.84162,-3.14035 20.21875,-10.53125 5.51801,-7.58455 9.89687,-18.74755 13.625,-33.65625 a 4.0410144,4.0410144 0 0 0 0.0312,-1.90625 c -0.34757,-1.48158 -0.808,-2.83422 -1.8125,-4.125 -1.0045,-1.29078 -2.91997,-2.40625 -4.78125,-2.40625 -3.72257,0 -5.66163,2.23164 -7.875,4.84375 a 4.0410144,4.0410144 0 0 0 -0.84375,1.6875 C 645.21044,863.91672 641.98827,872.25006 638.75,877 c -1.61914,2.37497 -3.21235,3.82884 -4.5625,4.5625 -1.35015,0.73366 -2.45058,0.88511 -3.9375,0.59375 a 4.0410144,4.0410144 0 0 0 -0.78125,-0.0625 l -98.96875,0 a 4.0410144,4.0410144 0 0 0 -0.53125,0.0312 c -1.34331,0.17864 -2.21242,0.0747 -2.5625,-0.0312 -0.35008,-0.10591 -0.1911,-0.0473 -0.21875,-0.0937 -0.0553,-0.0929 -0.4604,-2.01196 0.65625,-5.65625 l 17.625,-57.5 100.5625,0 c 0.11774,0.0103 0.22637,-0.009 0.34375,0 5.85857,0.44097 11.25884,-0.93134 15.375,-4.34375 4.14263,-3.43435 6.82436,-8.58941 8.375,-14.96875 0.021,-0.0862 0.042,-0.1633 0.0625,-0.25 L 682.65625,758.625 c 0.0331,-0.0869 0.0613,-0.1634 0.0937,-0.25 2.22033,-5.92141 2.87381,-11.2448 0.28125,-15.59375 -2.63047,-4.41255 -7.91866,-6.09367 -13.96875,-6.09375 l -96.46875,0 z m -0.0625,16.28125 36.59375,0 -15.1875,49.5625 -43.46875,0 12.6875,-41.40625 c 0.95907,-3.13006 2.23832,-5.10767 3.6875,-6.3125 1.44918,-1.20483 3.14106,-1.8437 5.6875,-1.84375 z m 52.5,0 39.03125,0 c 3.04214,5e-5 3.65673,0.67666 3.71875,0.78125 0.062,0.10459 0.40177,1.50397 -0.90625,4.625 a 4.0410144,4.0410144 0 0 0 -0.15625,0.375 l -10.90625,35.65625 a 4.0410144,4.0410144 0 0 0 -0.0937,0.375 c -0.73187,3.54853 -1.92336,5.58218 -3.1875,6.625 -1.26414,1.04282 -2.83143,1.51406 -5.625,1.15625 a 4.0410144,4.0410144 0 0 0 -0.5,-0.0312 l -36.5625,0 15.1875,-49.5625 z"
               id="path4631"
               style="font-size:98.47740936px;font-style:italic;font-variant:normal;font-weight:normal;font-stretch:normal;text-align:start;line-height:125%;writing-mode:lr-tb;text-anchor:start;opacity:0.83333333;fill:#000000;fill-opacity:1;stroke:none;font-family:YouYuan;-inkscape-font-specification:YouYuan Italic"
               inkscape:original="M 572.59375 740.71875 C 562.69846 740.71889 556.05028 746.21269 552.6875 757.1875 L 515.71875 877.90625 C 512.07568 889.79575 515.32452 895.28958 525.5 894.375 L 629.40625 894.375 C 642.03927 896.20415 652.02525 882.48525 659.34375 853.21875 C 658.27097 848.64588 655.78108 848.64588 651.90625 853.21875 C 646.26918 876.99778 638.80338 887.95413 629.46875 886.125 L 530.5 886.125 C 523.62292 887.03956 521.44662 883.38744 523.96875 875.15625 L 542.46875 814.8125 L 646.375 814.8125 C 656.81445 815.72712 663.43136 810.23334 666.25 798.34375 L 678.875 757.1875 C 683.06227 746.21269 679.78215 740.71889 669.0625 740.71875 L 572.59375 740.71875 z M 572.53125 748.9375 L 614.59375 748.9375 L 596.9375 806.5625 L 545 806.5625 L 559.28125 759.9375 C 561.52307 752.62099 565.93436 748.93762 572.53125 748.9375 z M 622.03125 748.9375 L 664.0625 748.9375 C 671.48375 748.93762 673.66008 752.62099 670.59375 759.9375 L 659.6875 795.59375 C 657.98983 803.82502 653.54729 807.47714 646.40625 806.5625 L 604.375 806.5625 L 622.03125 748.9375 z "
               inkscape:radius="4.0406103"
               sodipodi:type="inkscape:offset" />
            <path
               transform="translate(8.0812183,-168.55503)"
               sodipodi:type="inkscape:offset"
               inkscape:radius="4.0406103"
               inkscape:original="M 572.59375 740.71875 C 562.69846 740.71889 556.05028 746.21269 552.6875 757.1875 L 515.71875 877.90625 C 512.07568 889.79575 515.32452 895.28958 525.5 894.375 L 629.40625 894.375 C 642.03927 896.20415 652.02525 882.48525 659.34375 853.21875 C 658.27097 848.64588 655.78108 848.64588 651.90625 853.21875 C 646.26918 876.99778 638.80338 887.95413 629.46875 886.125 L 530.5 886.125 C 523.62292 887.03956 521.44662 883.38744 523.96875 875.15625 L 542.46875 814.8125 L 646.375 814.8125 C 656.81445 815.72712 663.43136 810.23334 666.25 798.34375 L 678.875 757.1875 C 683.06227 746.21269 679.78215 740.71889 669.0625 740.71875 L 572.59375 740.71875 z M 572.53125 748.9375 L 614.59375 748.9375 L 596.9375 806.5625 L 545 806.5625 L 559.28125 759.9375 C 561.52307 752.62099 565.93436 748.93762 572.53125 748.9375 z M 622.03125 748.9375 L 664.0625 748.9375 C 671.48375 748.93762 673.66008 752.62099 670.59375 759.9375 L 659.6875 795.59375 C 657.98983 803.82502 653.54729 807.47714 646.40625 806.5625 L 604.375 806.5625 L 622.03125 748.9375 z "
               style="font-size:98.47740936px;font-style:italic;font-variant:normal;font-weight:normal;font-stretch:normal;text-align:start;line-height:125%;writing-mode:lr-tb;text-anchor:start;opacity:0.83333333;fill:#000000;fill-opacity:1;stroke:none;font-family:YouYuan;-inkscape-font-specification:YouYuan Italic"
               id="path4633"
               d="m 572.59375,736.6875 c -5.69541,8e-5 -10.88924,1.65718 -14.96875,5.03125 -4.07951,3.37407 -6.96793,8.26128 -8.8125,14.28125 l -36.96875,120.71875 c -1.97118,6.43312 -2.52629,11.8651 0.0937,16.28125 1.31002,2.20808 3.51358,3.86122 5.9375,4.6875 2.31539,0.78929 4.85661,0.9337 7.625,0.71875 l 0.375,0 103.53125,0 0,-0.0312 c 7.65783,0.85286 14.84162,-3.14035 20.21875,-10.53125 5.51801,-7.58455 9.89687,-18.74755 13.625,-33.65625 a 4.0410144,4.0410144 0 0 0 0.0312,-1.90625 c -0.34757,-1.48158 -0.808,-2.83422 -1.8125,-4.125 -1.0045,-1.29078 -2.91997,-2.40625 -4.78125,-2.40625 -3.72257,0 -5.66163,2.23164 -7.875,4.84375 a 4.0410144,4.0410144 0 0 0 -0.84375,1.6875 C 645.21044,863.91672 641.98827,872.25006 638.75,877 c -1.61914,2.37497 -3.21235,3.82884 -4.5625,4.5625 -1.35015,0.73366 -2.45058,0.88511 -3.9375,0.59375 a 4.0410144,4.0410144 0 0 0 -0.78125,-0.0625 l -98.96875,0 a 4.0410144,4.0410144 0 0 0 -0.53125,0.0312 c -1.34331,0.17864 -2.21242,0.0747 -2.5625,-0.0312 -0.35008,-0.10591 -0.1911,-0.0473 -0.21875,-0.0937 -0.0553,-0.0929 -0.4604,-2.01196 0.65625,-5.65625 l 17.625,-57.5 100.5625,0 c 0.11774,0.0103 0.22637,-0.009 0.34375,0 5.85857,0.44097 11.25884,-0.93134 15.375,-4.34375 4.14263,-3.43435 6.82436,-8.58941 8.375,-14.96875 0.021,-0.0862 0.042,-0.1633 0.0625,-0.25 L 682.65625,758.625 c 0.0331,-0.0869 0.0613,-0.1634 0.0937,-0.25 2.22033,-5.92141 2.87381,-11.2448 0.28125,-15.59375 -2.63047,-4.41255 -7.91866,-6.09367 -13.96875,-6.09375 l -96.46875,0 z m -0.0625,16.28125 36.59375,0 -15.1875,49.5625 -43.46875,0 12.6875,-41.40625 c 0.95907,-3.13006 2.23832,-5.10767 3.6875,-6.3125 1.44918,-1.20483 3.14106,-1.8437 5.6875,-1.84375 z m 52.5,0 39.03125,0 c 3.04214,5e-5 3.65673,0.67666 3.71875,0.78125 0.062,0.10459 0.40177,1.50397 -0.90625,4.625 a 4.0410144,4.0410144 0 0 0 -0.15625,0.375 l -10.90625,35.65625 a 4.0410144,4.0410144 0 0 0 -0.0937,0.375 c -0.73187,3.54853 -1.92336,5.58218 -3.1875,6.625 -1.26414,1.04282 -2.83143,1.51406 -5.625,1.15625 a 4.0410144,4.0410144 0 0 0 -0.5,-0.0312 l -36.5625,0 15.1875,-49.5625 z" />
          </g>
          <g
             id="g4703">
            <g
               id="g4619"
               transform="translate(-15.012193,63.95837)">
              <path
                 transform="translate(0,-168.63505)"
                 d="m 141.25,730 c -1.91078,0.28148 -3.56732,1.50901 -5.40625,3.03125 a 2.8287099,2.8287099 0 0 0 -0.71875,0.90625 l -11.75,23.15625 -42.78125,0 a 2.8287099,2.8287099 0 0 0 -1.5625,0.5 c -2.358249,1.56328 -4.158412,3.26054 -4.875,5.625 -0.716588,2.36446 0.199511,4.977 1.84375,6.8125 A 2.8287099,2.8287099 0 0 0 78.09375,771 l 38.5625,0 -11.5625,21.75 -45.3125,0 a 2.8287099,2.8287099 0 0 0 -1.375,0.375 c -2.769827,1.53107 -4.882392,3.14257 -5.6875,5.75 -0.402554,1.30372 -0.295117,2.80478 0.25,4.03125 0.545117,1.22647 1.424912,2.18997 2.46875,3.0625 a 2.8287099,2.8287099 0 0 0 1.8125,0.6875 l 39.5,0 -7.375,12.15625 a 2.8287099,2.8287099 0 0 0 -0.03125,0.0312 c -3.639776,6.23425 -5.439989,11.27924 -3.5,15.625 0.969994,2.17288 2.990954,3.72458 5.3125,4.46875 2.263931,0.7257 4.890538,0.84593 7.96875,0.625 l 0,0.0312 49.46875,0 c 1.71885,10e-6 2.90696,0.14492 3.78125,0.3125 -0.38559,0.44722 -0.67369,0.81597 -1.5,1.5 -9.50986,7.87214 -22.63829,16.73388 -39.03125,26.4375 C 100.12535,862.66763 90.175799,858.67363 82.15625,856 a 2.8287099,2.8287099 0 0 0 -1.8125,0 c -3.097808,1.02873 -5.577943,2.38417 -6.75,4.96875 -1.172057,2.58458 -0.125311,5.50286 1.71875,7.75 a 2.8287099,2.8287099 0 0 0 1.15625,0.84375 c 18.337258,7.30233 41.32294,16.89809 69,28.78125 a 2.8287099,2.8287099 0 0 0 1.625,0.1875 c 3.0397,-0.53181 5.65392,-1.68505 7.09375,-4.0625 1.43983,-2.37745 1.16958,-5.31863 0.0312,-8.0625 a 2.8287099,2.8287099 0 0 0 -1.5,-1.5 l -26.53125,-11.5 c 10.89797,-6.40035 23.00475,-15.05291 36.53125,-26.25 a 2.8287099,2.8287099 0 0 0 0.21875,-0.21875 c 2.54947,-2.64984 4.41509,-5.07696 5.53125,-7.46875 1.11616,-2.39179 1.49113,-5.01413 0.46875,-7.3125 -1.02238,-2.29837 -3.14828,-3.765 -5.6875,-4.71875 -2.53922,-0.95375 -5.65725,-1.47937 -9.46875,-1.71875 a 2.8287099,2.8287099 0 0 0 -0.1875,-0.0312 l -49.46875,0 a 2.8287099,2.8287099 0 0 0 -0.375,0.0312 c -1.52027,0.20219 -2.61945,0.15421 -3.1875,0.0312 -0.568045,-0.12296 -0.47671,-0.14978 -0.40625,-0.0312 0.0705,0.11853 -0.0604,-0.003 0.0937,-0.71875 0.14949,-0.69415 0.60615,-1.86584 1.375,-3.25 l 0.0625,-0.0937 9.09375,-15 87.46875,0 a 2.8287099,2.8287099 0 0 0 1.375,-0.375 c 2.76974,-1.53101 4.88241,-3.14261 5.6875,-5.75 0.40255,-1.30369 0.29506,-2.80478 -0.25,-4.03125 -0.54506,-1.22647 -1.42497,-2.18992 -2.46875,-3.0625 a 2.8287099,2.8287099 0 0 0 -1.8125,-0.6875 l -81.875,0 11.5625,-21.75 71.3125,0 a 2.8287099,2.8287099 0 0 0 1.5625,-0.5 c 2.35817,-1.56318 4.15843,-3.26058 4.875,-5.625 0.71657,-2.36442 -0.19969,-4.97689 -1.84375,-6.8125 a 2.8287099,2.8287099 0 0 0 -2.09375,-0.96875 l -67.0625,0 9.9375,-19.1875 a 2.8287099,2.8287099 0 0 0 0.3125,-1.46875 c -0.075,-1.38112 -0.26255,-2.59977 -0.875,-3.78125 -0.61245,-1.18148 -1.91406,-2.31359 -3.34375,-2.59375 -0.71358,-0.13983 -1.36307,-0.15633 -2,-0.0625 z"
                 id="path4617"
                 style="font-size:98.47740936px;font-style:italic;font-variant:normal;font-weight:normal;font-stretch:normal;text-align:start;line-height:125%;writing-mode:lr-tb;text-anchor:start;opacity:0.83333333;fill:#ff6600;fill-opacity:1;stroke:none;font-family:YouYuan;-inkscape-font-specification:YouYuan Italic"
                 inkscape:original="M 142.71875 732.84375 C 141.55191 732.6151 139.86587 733.38966 137.65625 735.21875 L 125.125 759.9375 L 80.59375 759.9375 C 76.454589 762.68134 75.636003 765.41262 78.09375 768.15625 L 121.375 768.15625 L 106.78125 795.59375 L 59.78125 795.59375 C 54.817506 798.33755 53.967669 801.06884 57.25 803.8125 L 101.78125 803.8125 L 91.78125 820.28125 C 84.839712 832.1708 87.300266 837.66463 99.125 836.75 L 148.59375 836.75 C 156.83964 836.75004 158.21156 839.02089 152.6875 843.59375 C 142.74384 851.82498 129.19449 860.97092 112.09375 871.03125 C 99.756846 865.5438 89.479865 861.43125 81.25 858.6875 C 75.741869 860.51666 74.497897 863.27919 77.5 866.9375 C 95.873121 874.25411 118.90184 883.86047 146.59375 895.75 C 151.82148 894.83539 153.49086 892.07288 151.59375 887.5 L 119.9375 873.78125 C 131.7943 867.3792 145.4384 857.77287 160.90625 844.96875 C 170.58554 834.90843 168.15623 829.44586 153.59375 828.53125 L 104.125 828.53125 C 97.24788 829.44586 95.607821 826.68334 99.21875 820.28125 L 109.21875 803.8125 L 198.25 803.8125 C 203.21354 801.06884 204.06338 798.33755 200.78125 795.59375 L 114.1875 795.59375 L 128.78125 768.15625 L 201.78125 768.15625 C 205.92021 765.41262 206.73877 762.68134 204.28125 759.9375 L 132.5625 759.9375 L 144.65625 736.59375 C 144.53217 734.30737 143.88559 733.0724 142.71875 732.84375 z "
                 inkscape:radius="2.8284271"
                 sodipodi:type="inkscape:offset" />
              <path
                 transform="translate(0,-170.93388)"
                 d="m 311.625,732.1875 c -19.64376,2.72131 -43.27303,5.02114 -70.875,6.84375 -0.0632,-0.005 -0.16074,0 -0.125,0 0.0722,0 -0.0998,0.0222 -0.25,0.0312 -0.093,0.006 -0.20052,0.006 -0.15625,0 l 0,0.0312 a 2.8291126,2.8291126 0 0 0 -1.03125,0.3125 c -2.78825,1.54127 -4.95462,3.19786 -5.78125,5.875 -0.4288,1.38873 -0.31631,2.94463 0.25,4.21875 0.55599,1.25092 1.45351,2.25541 2.53125,3.15625 a 2.8291126,2.8291126 0 0 0 0.40625,0.28125 c -0.10522,-0.0611 0.48775,0.23326 0.375,0.1875 -0.11275,-0.0458 0.5243,0.18576 0.40625,0.15625 -0.11805,-0.0295 0.55852,0.0752 0.4375,0.0625 -0.0372,-0.004 0.0582,-0.001 0.125,0 0.0167,3.2e-4 0.0117,-5.2e-4 0.0312,0 0.15658,0.004 0.32483,-0.003 0.25,0 0.064,9.3e-4 0.16079,-0.002 0.125,0 -6.4e-4,5.1e-4 0.0402,-6e-4 0.0312,0 a 2.8291126,2.8291126 0 0 0 0.0312,0 c 9.4916,-0.78906 19.00933,-1.58508 28.5,-2.375 l -7.25,23.71875 -34.84375,0 0,0.0312 c -0.13133,9.7e-4 -0.2232,0.004 -0.21875,0 6.4e-4,-5.1e-4 -0.0402,6e-4 -0.0312,0 a 2.8291126,2.8291126 0 0 0 -0.6875,0.125 c 0.12441,-0.0402 -0.55444,0.21472 -0.4375,0.15625 0.099,-0.0495 -0.24293,0.18386 -0.3125,0.21875 -0.0127,0.006 -0.0789,0.0429 -0.0625,0.0312 -2.34679,1.56461 -4.19388,3.2967 -4.9375,5.71875 -0.75531,2.46013 0.17196,5.16135 1.875,7.0625 a 2.8291126,2.8291126 0 0 0 0.46875,0.4375 c -0.0164,-0.0116 0.0498,0.0249 0.0625,0.0312 0.0696,0.0349 0.41145,0.26823 0.3125,0.21875 0.0116,0.008 0.0805,0.0403 0.0625,0.0312 0.0702,0.0223 0.48083,0.1592 0.375,0.125 0.0115,0.006 0.0811,0.0372 0.0625,0.0312 a 2.8291126,2.8291126 0 0 0 0.6875,0.125 c -0.009,-6e-4 0.0319,5.1e-4 0.0312,0 -0.004,-0.004 0.0874,-9.7e-4 0.21875,0 l 0,0.0312 30.15625,0 c -14.34772,22.37544 -32.3269,42.08138 -54.25,58.96875 a 2.8291126,2.8291126 0 0 0 -0.125,0.125 2.8291126,2.8291126 0 0 0 -0.15625,0.125 c -0.0335,0.0298 -0.0803,0.0803 -0.0625,0.0625 a 2.8291126,2.8291126 0 0 0 -0.0625,0.0937 c -0.071,0.0789 -0.15713,0.16392 -0.125,0.125 a 2.8291126,2.8291126 0 0 0 -0.0625,0.0625 2.8291126,2.8291126 0 0 0 0,0.0312 2.8291126,2.8291126 0 0 0 -0.0937,0.15625 c -0.0848,0.14402 -0.19111,0.28846 -0.15625,0.21875 a 2.8291126,2.8291126 0 0 0 -0.0312,0.0937 c -0.0421,0.11487 -0.15666,0.4417 -0.125,0.34375 -0.54489,1.16582 -0.99048,2.27581 -1.1875,3.375 -0.22097,1.23279 -0.22716,2.65876 0.5625,4 0.80436,1.36619 2.2707,2.09469 3.5625,2.3125 1.314,0.22155 2.51169,0.0827 3.8125,-0.1875 a 2.8291126,2.8291126 0 0 0 0.3125,-0.0937 c -0.12441,0.0402 0.55444,-0.21472 0.4375,-0.15625 -0.11694,0.0585 0.48181,-0.3254 0.375,-0.25 a 2.8291126,2.8291126 0 0 0 0.0312,-0.0312 c 15.49741,-11.25377 28.94575,-23.94092 40.46875,-37.90625 l -22.3125,72.9375 a 2.8291126,2.8291126 0 0 0 -0.0937,0.65625 c 6e-4,-0.009 -5.1e-4,0.0319 0,0.0312 6e-4,-0.009 -5.1e-4,0.0319 0,0.0312 6e-4,-0.009 -5.1e-4,0.0319 0,0.0312 0.003,0.11834 0.006,0.40198 0,0.3125 -5.1e-4,-6.4e-4 6e-4,0.0402 0,0.0312 -5.1e-4,-6.4e-4 6e-4,0.0402 0,0.0312 -5.1e-4,-6.4e-4 6e-4,0.0402 0,0.0312 a 2.8291126,2.8291126 0 0 0 0.0625,0.46875 c 0.32205,1.37302 0.72688,2.59737 1.59375,3.71875 0.90755,1.17401 2.45363,2.0625 4.03125,2.0625 3.01381,0 4.95738,-1.97889 7.09375,-4.5 a 2.8291126,2.8291126 0 0 0 0.28125,-0.40625 c -0.0474,0.0798 0.19485,-0.36565 0.15625,-0.28125 -0.0386,0.0844 0.15435,-0.40055 0.125,-0.3125 -0.009,0.0271 0.0183,-0.0445 0.0312,-0.0937 L 263.5,807.3125 c 3.57256,11.37661 7.15385,22.75323 10.71875,34.125 0.0158,0.0504 0.0155,0.10588 0.0312,0.15625 a 2.8291126,2.8291126 0 0 0 0.0312,0.125 c 0.007,0.0219 0.0244,0.0406 0.0312,0.0625 a 2.8291126,2.8291126 0 0 0 0,0.0625 c -0.0402,-0.12441 0.21472,0.55444 0.15625,0.4375 -0.0585,-0.11694 0.3254,0.48181 0.25,0.375 a 2.8291126,2.8291126 0 0 0 0.125,0.1875 c -0.0525,-0.0636 0.24584,0.27709 0.1875,0.21875 -0.0583,-0.0583 0.28237,0.24002 0.21875,0.1875 l 0,-0.0312 0.0312,0 c 1.07582,0.89559 2.22898,1.59757 3.53125,1.90625 1.38135,0.32743 2.93793,0.14907 4.21875,-0.5625 2.46291,-1.36827 3.62398,-3.84345 4.5625,-6.90625 A 2.8291126,2.8291126 0 0 0 287.6875,837 c -6e-4,0.009 5.1e-4,-0.0319 0,-0.0312 -6e-4,0.009 5.1e-4,-0.0319 0,-0.0312 -6e-4,0.009 5.1e-4,-0.0319 0,-0.0312 -0.006,0.0895 -0.003,-0.19416 0,-0.3125 5.1e-4,6.4e-4 -6e-4,-0.0402 0,-0.0312 5.1e-4,6.4e-4 -6e-4,-0.0402 0,-0.0312 5.1e-4,6.4e-4 -6e-4,-0.0402 0,-0.0312 a 2.8291126,2.8291126 0 0 0 -0.0937,-0.5625 c -3.99683,-14.42909 -9.13407,-30.14086 -15.21875,-46.875 l 29.0625,0 0,-0.0312 c 0.14103,-3.2e-4 0.28138,-0.004 0.21875,0 -6.4e-4,5.1e-4 0.0402,-6e-4 0.0312,0 a 2.8291126,2.8291126 0 0 0 0.6875,-0.125 c -0.12441,0.0402 0.55444,-0.21472 0.4375,-0.15625 -0.099,0.0495 0.24293,-0.18386 0.3125,-0.21875 0.0201,-0.0133 0.0424,-0.0179 0.0625,-0.0312 2.34677,-1.56455 4.19387,-3.29665 4.9375,-5.71875 0.75533,-2.4602 -0.17224,-5.1614 -1.875,-7.0625 a 2.8291126,2.8291126 0 0 0 -0.46875,-0.4375 c 0.0164,0.0116 -0.0498,-0.0249 -0.0625,-0.0312 0.0904,0.0638 -0.24886,-0.17394 -0.3125,-0.21875 0.0175,0.009 -0.0502,-0.0273 -0.0625,-0.0312 0.0995,0.0497 -0.30924,-0.0918 -0.375,-0.125 -0.0115,-0.006 -0.0811,-0.0372 -0.0625,-0.0312 a 2.8291126,2.8291126 0 0 0 -0.6875,-0.125 c 0.009,6e-4 -0.0319,-5.1e-4 -0.0312,0 0.0626,0.004 -0.0777,3.2e-4 -0.21875,0 l 0,-0.0312 -30.46875,0 7.84375,-25.59375 c 8.80867,-0.85378 18.19687,-1.74203 28.4375,-2.59375 -6.4e-4,5.1e-4 0.0402,-6e-4 0.0312,0 a 2.8291126,2.8291126 0 0 0 0.6875,-0.125 c -0.12441,0.0402 0.55444,-0.21472 0.4375,-0.15625 -0.11694,0.0585 0.48181,-0.3254 0.375,-0.25 a 2.8291126,2.8291126 0 0 0 0.1875,-0.125 c 2.43229,-2.01343 4.17909,-3.89946 4.90625,-6.3125 0.37361,-1.23979 0.36285,-2.69322 -0.15625,-3.9375 -0.41155,-0.98648 -1.12813,-1.73332 -1.90625,-2.375 0.0525,0.0636 -0.24584,-0.27709 -0.1875,-0.21875 0.0583,0.0583 -0.28237,-0.24002 -0.21875,-0.1875 a 2.8291126,2.8291126 0 0 0 -0.21875,-0.125 2.8291126,2.8291126 0 0 0 -1.40625,-0.5 c 0.009,6e-4 -0.0319,-5.1e-4 -0.0312,0 0.009,6e-4 -0.0319,-5.1e-4 -0.0312,0 0.009,6e-4 -0.0319,-5.1e-4 -0.0312,0 0.0895,0.006 -0.19416,0.003 -0.3125,0 -0.0118,-3.2e-4 -0.025,4.2e-4 -0.0312,0 -0.006,-4.2e-4 -0.0319,5.1e-4 -0.0312,0 6.4e-4,-5.1e-4 -0.0402,6e-4 -0.0312,0 a 2.8291126,2.8291126 0 0 0 -0.1875,0 z m 55.875,0.65625 c -3.01369,0 -4.95913,1.98088 -7.09375,4.5 A 2.8291126,2.8291126 0 0 0 360.125,737.75 c 0.0474,-0.0798 -0.19485,0.36565 -0.15625,0.28125 0.0386,-0.0844 -0.15435,0.40055 -0.125,0.3125 0.009,-0.0271 -0.0183,0.0445 -0.0312,0.0937 l -40.375,131.6875 a 2.8291126,2.8291126 0 0 0 -0.0625,0.4375 2.8291126,2.8291126 0 0 0 -0.0312,0.125 c -0.59417,3.69643 -1.70016,6.41319 -3.0625,8.1875 -1.38081,1.79836 -2.96319,2.76933 -5.28125,3.21875 -4.59991,0.89182 -12.33795,-1.0601 -22.5625,-6.8125 -0.0222,-0.0125 -0.0403,-0.0187 -0.0625,-0.0312 -0.0754,-0.0464 -0.16548,-0.11399 -0.125,-0.0937 0.11694,0.0585 -0.56191,-0.19646 -0.4375,-0.15625 a 2.8291126,2.8291126 0 0 0 -0.53125,-0.125 c 0.0443,0.006 -0.0633,0.006 -0.15625,0 -0.15022,-0.009 -0.32217,-0.0312 -0.25,-0.0312 0.11685,0 -0.52204,0.047 -0.40625,0.0312 a 2.8291126,2.8291126 0 0 0 -0.125,0.0312 c -3.1487,0.55083 -5.93921,1.98924 -7.40625,4.59375 -1.36073,2.41577 -1.27168,5.28476 -0.5,8.25 -5.1e-4,-6.4e-4 6e-4,0.0402 0,0.0312 a 2.8291126,2.8291126 0 0 0 0.0937,0.59375 2.8291126,2.8291126 0 0 0 0.0937,0.3125 c -0.0325,-0.078 0.19621,0.32446 0.15625,0.25 -0.04,-0.0745 0.17203,0.35146 0.125,0.28125 -0.047,-0.0702 0.24115,0.28405 0.1875,0.21875 -0.0537,-0.0653 0.27851,0.27851 0.21875,0.21875 -0.0598,-0.0598 0.28405,0.2724 0.21875,0.21875 -0.0653,-0.0536 0.28896,0.23453 0.21875,0.1875 -0.0702,-0.047 0.35571,0.16496 0.28125,0.125 -0.0393,-0.0211 0.0341,0.0504 0.125,0.0937 0.0451,0.0215 0.08,0.0411 0.125,0.0625 11.32398,5.38477 20.16912,7.88999 27.25,7.0625 0.49662,0.0435 0.51215,0.038 0.0625,0 0.20221,0.0171 0.39269,-0.0117 0.59375,0 5.68369,0.3307 10.90904,-1.45125 14.875,-5.3125 4.08324,-3.97545 6.92983,-9.82881 8.84375,-17.40625 0.0135,-0.0536 0.0178,-0.10247 0.0312,-0.15625 L 373.09375,740.25 a 2.8291126,2.8291126 0 0 0 0.0937,-0.65625 c -6e-4,0.009 5.1e-4,-0.0319 0,-0.0312 -6e-4,0.009 5.1e-4,-0.0319 0,-0.0312 -6e-4,0.009 5.1e-4,-0.0319 0,-0.0312 -0.006,0.0895 -0.003,-0.19416 0,-0.3125 5.1e-4,6.4e-4 -6e-4,-0.0402 0,-0.0312 5.1e-4,6.4e-4 -6e-4,-0.0402 0,-0.0312 5.1e-4,6.4e-4 -6e-4,-0.0402 0,-0.0312 A 2.8291126,2.8291126 0 0 0 373.125,738.625 c -0.32208,-1.37281 -0.73052,-2.59955 -1.59375,-3.71875 -0.9061,-1.17479 -2.4595,-2.0625 -4.03125,-2.0625 z m -40.25,10.3125 c -2.46588,0 -4.40622,1.41783 -6.3125,3.28125 0.0687,-0.0464 -0.28269,0.24023 -0.21875,0.1875 -0.0719,0.0718 -0.14686,0.11434 -0.21875,0.1875 0.0586,-0.0586 -0.24023,0.28269 -0.1875,0.21875 0.0527,-0.0639 -0.23388,0.28744 -0.1875,0.21875 a 2.8291126,2.8291126 0 0 0 -0.375,0.78125 L 287.375,853.6875 a 2.8291126,2.8291126 0 0 0 -0.0937,0.65625 c 6e-4,-0.009 -5.1e-4,0.0319 0,0.0312 6e-4,-0.009 -5.1e-4,0.0319 0,0.0312 6e-4,-0.009 -5.1e-4,0.0319 0,0.0312 0.003,0.11834 0.006,0.40198 0,0.3125 -5.1e-4,-6.4e-4 6e-4,0.0402 0,0.0312 -5.1e-4,-6.4e-4 6e-4,0.0402 0,0.0312 -5.1e-4,-6.4e-4 6e-4,0.0402 0,0.0312 a 2.8291126,2.8291126 0 0 0 0.0625,0.46875 c 0.32098,1.36857 0.74652,2.62106 1.625,3.75 0.90061,1.15737 2.42342,2.03125 4,2.03125 3.01222,0 4.98094,-1.96985 7.125,-4.5 a 2.8291126,2.8291126 0 0 0 0.28125,-0.40625 c -0.0474,0.0798 0.19485,-0.36565 0.15625,-0.28125 -0.0386,0.0844 0.15435,-0.40055 0.125,-0.3125 -0.0118,0.0356 0.0103,-0.0473 0.0312,-0.125 L 333.03125,749.8125 a 2.8291126,2.8291126 0 0 0 0.0937,-0.625 c -6e-4,0.009 5.1e-4,-0.0319 0,-0.0312 -6e-4,0.009 5.1e-4,-0.0319 0,-0.0312 -6e-4,0.009 5.1e-4,-0.0319 0,-0.0312 -6e-4,0.009 5.1e-4,-0.0319 0,-0.0312 -0.005,0.0805 -0.002,-0.13734 0,-0.28125 5.1e-4,6.4e-4 -6e-4,-0.0402 0,-0.0312 5.1e-4,6.4e-4 -6e-4,-0.0402 0,-0.0312 5.1e-4,6.4e-4 -6e-4,-0.0402 0,-0.0312 5.1e-4,6.4e-4 -6e-4,-0.0402 0,-0.0312 a 2.8291126,2.8291126 0 0 0 -0.15625,-0.78125 c -0.44855,-1.2128 -1.04674,-2.30597 -1.96875,-3.1875 -0.98434,-0.94113 -2.42492,-1.53125 -3.75,-1.53125 z"
                 id="path4615"
                 style="font-size:98.47740936px;font-style:italic;font-variant:normal;font-weight:normal;font-stretch:normal;text-align:start;line-height:125%;writing-mode:lr-tb;text-anchor:start;opacity:0.83333333;fill:#ff6600;fill-opacity:1;stroke:none;font-family:YouYuan;-inkscape-font-specification:YouYuan Italic"
                 inkscape:original="M 312 735 C 292.20084 737.74284 268.4557 740.04623 240.6875 741.875 A 0.23218147 0.23218147 0 0 0 240.65625 741.875 A 0.23218147 0.23218147 0 0 0 240.59375 741.875 A 0.23218147 0.23218147 0 0 0 240.5625 741.875 C 238.05698 743.25999 236.54778 744.65457 236.09375 746.125 C 235.86674 746.86021 235.92589 747.61454 236.25 748.34375 C 236.57411 749.07296 237.16108 749.79878 238 750.5 A 0.23218147 0.23218147 0 0 0 238.125 750.53125 A 0.23218147 0.23218147 0 0 0 238.15625 750.53125 A 0.23218147 0.23218147 0 0 0 238.1875 750.53125 C 249.07294 749.62632 259.95836 748.71778 270.84375 747.8125 L 261.75 777.53125 L 224.8125 777.53125 A 0.23218147 0.23218147 0 0 0 224.78125 777.53125 A 0.23218147 0.23218147 0 0 0 224.75 777.53125 A 0.23218147 0.23218147 0 0 0 224.6875 777.5625 C 222.59412 778.9502 221.29125 780.35494 220.84375 781.8125 C 220.39625 783.27006 220.83017 784.74568 222.09375 786.15625 A 0.23218147 0.23218147 0 0 0 222.15625 786.1875 A 0.23218147 0.23218147 0 0 0 222.21875 786.21875 A 0.23218147 0.23218147 0 0 0 222.25 786.21875 A 0.23218147 0.23218147 0 0 0 222.28125 786.21875 L 257.75 786.21875 C 242.80668 810.74175 223.51943 832.09201 199.90625 850.28125 A 0.23218147 0.23218147 0 0 0 199.875 850.34375 A 0.23218147 0.23218147 0 0 0 199.84375 850.375 C 199.28141 851.53034 198.93071 852.50991 198.78125 853.34375 C 198.63179 854.17759 198.69069 854.88089 199 855.40625 C 199.30931 855.93161 199.86395 856.25195 200.59375 856.375 C 201.32355 856.49805 202.25716 856.41968 203.375 856.1875 A 0.23218147 0.23218147 0 0 0 203.4375 856.15625 C 223.21036 841.79777 239.68331 825.19909 252.875 806.4375 L 225.96875 894.3125 A 0.23218147 0.23218147 0 0 0 225.96875 894.34375 A 0.23218147 0.23218147 0 0 0 225.96875 894.375 A 0.23218147 0.23218147 0 0 0 225.96875 894.40625 A 0.23218147 0.23218147 0 0 0 225.96875 894.4375 C 226.2414 895.59992 226.58869 896.48083 227.0625 897.09375 C 227.53631 897.70667 228.15545 898.03125 228.84375 898.03125 C 230.22035 898.03125 231.82808 896.83617 233.78125 894.53125 A 0.23218147 0.23218147 0 0 0 233.8125 894.4375 L 263.4375 797.75 C 267.95009 812.14478 272.488 826.54334 277 840.9375 A 0.23218147 0.23218147 0 0 0 277 840.96875 A 0.23218147 0.23218147 0 0 0 277.03125 841.03125 A 0.23218147 0.23218147 0 0 0 277.0625 841.0625 C 277.90142 841.76379 278.70034 842.19286 279.46875 842.375 C 280.23716 842.55714 280.98923 842.46432 281.65625 842.09375 C 282.9903 841.35262 284.0265 839.58153 284.875 836.8125 A 0.23218147 0.23218147 0 0 0 284.875 836.78125 A 0.23218147 0.23218147 0 0 0 284.875 836.75 A 0.23218147 0.23218147 0 0 0 284.875 836.71875 A 0.23218147 0.23218147 0 0 0 284.875 836.6875 C 280.59147 821.22337 275.08714 804.39165 268.375 786.21875 L 301.4375 786.21875 A 0.23218147 0.23218147 0 0 0 301.46875 786.21875 A 0.23218147 0.23218147 0 0 0 301.5 786.21875 A 0.23218147 0.23218147 0 0 0 301.5625 786.1875 C 303.65581 784.79989 304.95875 783.39506 305.40625 781.9375 C 305.85375 780.47994 305.41974 779.00441 304.15625 777.59375 A 0.23218147 0.23218147 0 0 0 304.09375 777.5625 A 0.23218147 0.23218147 0 0 0 304.03125 777.53125 A 0.23218147 0.23218147 0 0 0 304 777.53125 A 0.23218147 0.23218147 0 0 0 303.96875 777.53125 L 269.65625 777.53125 L 279.1875 746.4375 C 288.49796 745.52775 298.61918 744.59748 309.5625 743.6875 A 0.23218147 0.23218147 0 0 0 309.59375 743.6875 A 0.23218147 0.23218147 0 0 0 309.625 743.6875 A 0.23218147 0.23218147 0 0 0 309.6875 743.65625 C 311.9138 741.81334 313.24812 740.17681 313.6875 738.71875 C 313.90719 737.98972 313.88608 737.31331 313.625 736.6875 C 313.36392 736.06169 312.86759 735.50654 312.15625 735.03125 A 0.23218147 0.23218147 0 0 0 312.125 735 A 0.23218147 0.23218147 0 0 0 312.09375 735 A 0.23218147 0.23218147 0 0 0 312.0625 735 A 0.23218147 0.23218147 0 0 0 312.03125 735 A 0.23218147 0.23218147 0 0 0 312 735 z M 367.5 735.6875 C 366.11906 735.6875 364.51519 736.88308 362.5625 739.1875 A 0.23218147 0.23218147 0 0 0 362.53125 739.28125 L 322.15625 870.96875 A 0.23218147 0.23218147 0 0 0 322.15625 871 C 321.51767 875.08959 320.3 878.29013 318.53125 880.59375 C 316.7625 882.89737 314.44025 884.31101 311.53125 884.875 C 305.71326 886.00298 297.52568 883.65124 287 877.71875 A 0.23218147 0.23218147 0 0 0 286.9375 877.6875 A 0.23218147 0.23218147 0 0 0 286.90625 877.6875 A 0.23218147 0.23218147 0 0 0 286.84375 877.6875 C 284.18906 878.15191 282.34894 879.20139 281.40625 880.875 C 280.46356 882.54861 280.43142 884.78471 281.25 887.5625 A 0.23218147 0.23218147 0 0 0 281.25 887.59375 A 0.23218147 0.23218147 0 0 0 281.375 887.71875 C 292.86907 893.19761 301.64163 895.4983 307.78125 894.59375 C 307.80247 894.59561 307.82256 894.59196 307.84375 894.59375 C 313.09063 895.03814 317.53671 893.52563 321.09375 890.0625 C 324.66515 886.58538 327.35139 881.18615 329.1875 873.84375 L 370.375 739.40625 A 0.23218147 0.23218147 0 0 0 370.375 739.375 A 0.23218147 0.23218147 0 0 0 370.375 739.34375 A 0.23218147 0.23218147 0 0 0 370.375 739.3125 A 0.23218147 0.23218147 0 0 0 370.375 739.28125 C 370.1023 738.11892 369.75547 737.23984 369.28125 736.625 C 368.80703 736.01016 368.19047 735.6875 367.5 735.6875 z M 327.25 746 C 325.90178 746 324.34829 746.93206 322.53125 748.78125 A 0.23218147 0.23218147 0 0 0 322.46875 748.84375 A 0.23218147 0.23218147 0 0 0 322.46875 748.875 L 290.09375 854.53125 A 0.23218147 0.23218147 0 0 0 290.09375 854.5625 A 0.23218147 0.23218147 0 0 0 290.09375 854.59375 A 0.23218147 0.23218147 0 0 0 290.09375 854.625 A 0.23218147 0.23218147 0 0 0 290.09375 854.65625 C 290.36644 855.81892 290.71054 856.69956 291.1875 857.3125 C 291.66446 857.92544 292.27699 858.25 292.96875 858.25 C 294.35226 858.25 295.9841 857.05516 297.9375 854.75 A 0.23218147 0.23218147 0 0 0 297.96875 854.65625 L 330.3125 749 A 0.23218147 0.23218147 0 0 0 330.3125 748.96875 A 0.23218147 0.23218147 0 0 0 330.3125 748.9375 A 0.23218147 0.23218147 0 0 0 330.3125 748.90625 A 0.23218147 0.23218147 0 0 0 330.3125 748.875 A 0.23218147 0.23218147 0 0 0 330.3125 748.84375 C 329.96649 747.90821 329.53963 747.20481 329.03125 746.71875 C 328.52287 746.23269 327.92411 746 327.25 746 z "
                 inkscape:radius="2.8288298"
                 sodipodi:type="inkscape:offset" />
              <path
                 transform="translate(-151.52288,-168.55503)"
                 d="m 572.59375,736.6875 c -5.69541,8e-5 -10.88924,1.65718 -14.96875,5.03125 -4.07951,3.37407 -6.96793,8.26128 -8.8125,14.28125 l -36.96875,120.71875 c -1.97118,6.43312 -2.52629,11.8651 0.0937,16.28125 1.31002,2.20808 3.51358,3.86122 5.9375,4.6875 2.31539,0.78929 4.85661,0.9337 7.625,0.71875 l 0.375,0 103.53125,0 0,-0.0312 c 7.65783,0.85286 14.84162,-3.14035 20.21875,-10.53125 5.51801,-7.58455 9.89687,-18.74755 13.625,-33.65625 a 4.0410144,4.0410144 0 0 0 0.0312,-1.90625 c -0.34757,-1.48158 -0.808,-2.83422 -1.8125,-4.125 -1.0045,-1.29078 -2.91997,-2.40625 -4.78125,-2.40625 -3.72257,0 -5.66163,2.23164 -7.875,4.84375 a 4.0410144,4.0410144 0 0 0 -0.84375,1.6875 C 645.21044,863.91672 641.98827,872.25006 638.75,877 c -1.61914,2.37497 -3.21235,3.82884 -4.5625,4.5625 -1.35015,0.73366 -2.45058,0.88511 -3.9375,0.59375 a 4.0410144,4.0410144 0 0 0 -0.78125,-0.0625 l -98.96875,0 a 4.0410144,4.0410144 0 0 0 -0.53125,0.0312 c -1.34331,0.17864 -2.21242,0.0747 -2.5625,-0.0312 -0.35008,-0.10591 -0.1911,-0.0473 -0.21875,-0.0937 -0.0553,-0.0929 -0.4604,-2.01196 0.65625,-5.65625 l 17.625,-57.5 100.5625,0 c 0.11774,0.0103 0.22637,-0.009 0.34375,0 5.85857,0.44097 11.25884,-0.93134 15.375,-4.34375 4.14263,-3.43435 6.82436,-8.58941 8.375,-14.96875 0.021,-0.0862 0.042,-0.1633 0.0625,-0.25 L 682.65625,758.625 c 0.0331,-0.0869 0.0613,-0.1634 0.0937,-0.25 2.22033,-5.92141 2.87381,-11.2448 0.28125,-15.59375 -2.63047,-4.41255 -7.91866,-6.09367 -13.96875,-6.09375 l -96.46875,0 z m -0.0625,16.28125 36.59375,0 -15.1875,49.5625 -43.46875,0 12.6875,-41.40625 c 0.95907,-3.13006 2.23832,-5.10767 3.6875,-6.3125 1.44918,-1.20483 3.14106,-1.8437 5.6875,-1.84375 z m 52.5,0 39.03125,0 c 3.04214,5e-5 3.65673,0.67666 3.71875,0.78125 0.062,0.10459 0.40177,1.50397 -0.90625,4.625 a 4.0410144,4.0410144 0 0 0 -0.15625,0.375 l -10.90625,35.65625 a 4.0410144,4.0410144 0 0 0 -0.0937,0.375 c -0.73187,3.54853 -1.92336,5.58218 -3.1875,6.625 -1.26414,1.04282 -2.83143,1.51406 -5.625,1.15625 a 4.0410144,4.0410144 0 0 0 -0.5,-0.0312 l -36.5625,0 15.1875,-49.5625 z"
                 id="path4609"
                 style="font-size:98.47740936px;font-style:italic;font-variant:normal;font-weight:normal;font-stretch:normal;text-align:start;line-height:125%;writing-mode:lr-tb;text-anchor:start;opacity:0.83333333;fill:#ff6600;fill-opacity:1;stroke:none;font-family:YouYuan;-inkscape-font-specification:YouYuan Italic"
                 inkscape:original="M 572.59375 740.71875 C 562.69846 740.71889 556.05028 746.21269 552.6875 757.1875 L 515.71875 877.90625 C 512.07568 889.79575 515.32452 895.28958 525.5 894.375 L 629.40625 894.375 C 642.03927 896.20415 652.02525 882.48525 659.34375 853.21875 C 658.27097 848.64588 655.78108 848.64588 651.90625 853.21875 C 646.26918 876.99778 638.80338 887.95413 629.46875 886.125 L 530.5 886.125 C 523.62292 887.03956 521.44662 883.38744 523.96875 875.15625 L 542.46875 814.8125 L 646.375 814.8125 C 656.81445 815.72712 663.43136 810.23334 666.25 798.34375 L 678.875 757.1875 C 683.06227 746.21269 679.78215 740.71889 669.0625 740.71875 L 572.59375 740.71875 z M 572.53125 748.9375 L 614.59375 748.9375 L 596.9375 806.5625 L 545 806.5625 L 559.28125 759.9375 C 561.52307 752.62099 565.93436 748.93762 572.53125 748.9375 z M 622.03125 748.9375 L 664.0625 748.9375 C 671.48375 748.93762 673.66008 752.62099 670.59375 759.9375 L 659.6875 795.59375 C 657.98983 803.82502 653.54729 807.47714 646.40625 806.5625 L 604.375 806.5625 L 622.03125 748.9375 z "
                 inkscape:radius="4.0406103"
                 sodipodi:type="inkscape:offset" />
              <path
                 transform="translate(8.0812183,-168.55503)"
                 sodipodi:type="inkscape:offset"
                 inkscape:radius="4.0406103"
                 inkscape:original="M 572.59375 740.71875 C 562.69846 740.71889 556.05028 746.21269 552.6875 757.1875 L 515.71875 877.90625 C 512.07568 889.79575 515.32452 895.28958 525.5 894.375 L 629.40625 894.375 C 642.03927 896.20415 652.02525 882.48525 659.34375 853.21875 C 658.27097 848.64588 655.78108 848.64588 651.90625 853.21875 C 646.26918 876.99778 638.80338 887.95413 629.46875 886.125 L 530.5 886.125 C 523.62292 887.03956 521.44662 883.38744 523.96875 875.15625 L 542.46875 814.8125 L 646.375 814.8125 C 656.81445 815.72712 663.43136 810.23334 666.25 798.34375 L 678.875 757.1875 C 683.06227 746.21269 679.78215 740.71889 669.0625 740.71875 L 572.59375 740.71875 z M 572.53125 748.9375 L 614.59375 748.9375 L 596.9375 806.5625 L 545 806.5625 L 559.28125 759.9375 C 561.52307 752.62099 565.93436 748.93762 572.53125 748.9375 z M 622.03125 748.9375 L 664.0625 748.9375 C 671.48375 748.93762 673.66008 752.62099 670.59375 759.9375 L 659.6875 795.59375 C 657.98983 803.82502 653.54729 807.47714 646.40625 806.5625 L 604.375 806.5625 L 622.03125 748.9375 z "
                 style="font-size:98.47740936px;font-style:italic;font-variant:normal;font-weight:normal;font-stretch:normal;text-align:start;line-height:125%;writing-mode:lr-tb;text-anchor:start;opacity:0.83333333;fill:#ff6600;fill-opacity:1;stroke:none;font-family:YouYuan;-inkscape-font-specification:YouYuan Italic"
                 id="path4611"
                 d="m 572.59375,736.6875 c -5.69541,8e-5 -10.88924,1.65718 -14.96875,5.03125 -4.07951,3.37407 -6.96793,8.26128 -8.8125,14.28125 l -36.96875,120.71875 c -1.97118,6.43312 -2.52629,11.8651 0.0937,16.28125 1.31002,2.20808 3.51358,3.86122 5.9375,4.6875 2.31539,0.78929 4.85661,0.9337 7.625,0.71875 l 0.375,0 103.53125,0 0,-0.0312 c 7.65783,0.85286 14.84162,-3.14035 20.21875,-10.53125 5.51801,-7.58455 9.89687,-18.74755 13.625,-33.65625 a 4.0410144,4.0410144 0 0 0 0.0312,-1.90625 c -0.34757,-1.48158 -0.808,-2.83422 -1.8125,-4.125 -1.0045,-1.29078 -2.91997,-2.40625 -4.78125,-2.40625 -3.72257,0 -5.66163,2.23164 -7.875,4.84375 a 4.0410144,4.0410144 0 0 0 -0.84375,1.6875 C 645.21044,863.91672 641.98827,872.25006 638.75,877 c -1.61914,2.37497 -3.21235,3.82884 -4.5625,4.5625 -1.35015,0.73366 -2.45058,0.88511 -3.9375,0.59375 a 4.0410144,4.0410144 0 0 0 -0.78125,-0.0625 l -98.96875,0 a 4.0410144,4.0410144 0 0 0 -0.53125,0.0312 c -1.34331,0.17864 -2.21242,0.0747 -2.5625,-0.0312 -0.35008,-0.10591 -0.1911,-0.0473 -0.21875,-0.0937 -0.0553,-0.0929 -0.4604,-2.01196 0.65625,-5.65625 l 17.625,-57.5 100.5625,0 c 0.11774,0.0103 0.22637,-0.009 0.34375,0 5.85857,0.44097 11.25884,-0.93134 15.375,-4.34375 4.14263,-3.43435 6.82436,-8.58941 8.375,-14.96875 0.021,-0.0862 0.042,-0.1633 0.0625,-0.25 L 682.65625,758.625 c 0.0331,-0.0869 0.0613,-0.1634 0.0937,-0.25 2.22033,-5.92141 2.87381,-11.2448 0.28125,-15.59375 -2.63047,-4.41255 -7.91866,-6.09367 -13.96875,-6.09375 l -96.46875,0 z m -0.0625,16.28125 36.59375,0 -15.1875,49.5625 -43.46875,0 12.6875,-41.40625 c 0.95907,-3.13006 2.23832,-5.10767 3.6875,-6.3125 1.44918,-1.20483 3.14106,-1.8437 5.6875,-1.84375 z m 52.5,0 39.03125,0 c 3.04214,5e-5 3.65673,0.67666 3.71875,0.78125 0.062,0.10459 0.40177,1.50397 -0.90625,4.625 a 4.0410144,4.0410144 0 0 0 -0.15625,0.375 l -10.90625,35.65625 a 4.0410144,4.0410144 0 0 0 -0.0937,0.375 c -0.73187,3.54853 -1.92336,5.58218 -3.1875,6.625 -1.26414,1.04282 -2.83143,1.51406 -5.625,1.15625 a 4.0410144,4.0410144 0 0 0 -0.5,-0.0312 l -36.5625,0 15.1875,-49.5625 z" />
            </g>
          </g>
          <g
             id="g4659"
             transform="translate(-129.01219,-274.04163)">
            <path
               transform="translate(114,169.36495)"
               d="m 141.25,730 c -1.91078,0.28148 -3.56732,1.50901 -5.40625,3.03125 a 2.8287099,2.8287099 0 0 0 -0.71875,0.90625 l -11.75,23.15625 -42.78125,0 a 2.8287099,2.8287099 0 0 0 -1.5625,0.5 c -2.358249,1.56328 -4.158412,3.26054 -4.875,5.625 -0.716588,2.36446 0.199511,4.977 1.84375,6.8125 A 2.8287099,2.8287099 0 0 0 78.09375,771 l 38.5625,0 -11.5625,21.75 -45.3125,0 a 2.8287099,2.8287099 0 0 0 -1.375,0.375 c -2.769827,1.53107 -4.882392,3.14257 -5.6875,5.75 -0.402554,1.30372 -0.295117,2.80478 0.25,4.03125 0.545117,1.22647 1.424912,2.18997 2.46875,3.0625 a 2.8287099,2.8287099 0 0 0 1.8125,0.6875 l 39.5,0 -7.375,12.15625 a 2.8287099,2.8287099 0 0 0 -0.03125,0.0312 c -3.639776,6.23425 -5.439989,11.27924 -3.5,15.625 0.969994,2.17288 2.990954,3.72458 5.3125,4.46875 2.263931,0.7257 4.890538,0.84593 7.96875,0.625 l 0,0.0312 49.46875,0 c 1.71885,10e-6 2.90696,0.14492 3.78125,0.3125 -0.38559,0.44722 -0.67369,0.81597 -1.5,1.5 -9.50986,7.87214 -22.63829,16.73388 -39.03125,26.4375 C 100.12535,862.66763 90.175799,858.67363 82.15625,856 a 2.8287099,2.8287099 0 0 0 -1.8125,0 c -3.097808,1.02873 -5.577943,2.38417 -6.75,4.96875 -1.172057,2.58458 -0.125311,5.50286 1.71875,7.75 a 2.8287099,2.8287099 0 0 0 1.15625,0.84375 c 18.337258,7.30233 41.32294,16.89809 69,28.78125 a 2.8287099,2.8287099 0 0 0 1.625,0.1875 c 3.0397,-0.53181 5.65392,-1.68505 7.09375,-4.0625 1.43983,-2.37745 1.16958,-5.31863 0.0312,-8.0625 a 2.8287099,2.8287099 0 0 0 -1.5,-1.5 l -26.53125,-11.5 c 10.89797,-6.40035 23.00475,-15.05291 36.53125,-26.25 a 2.8287099,2.8287099 0 0 0 0.21875,-0.21875 c 2.54947,-2.64984 4.41509,-5.07696 5.53125,-7.46875 1.11616,-2.39179 1.49113,-5.01413 0.46875,-7.3125 -1.02238,-2.29837 -3.14828,-3.765 -5.6875,-4.71875 -2.53922,-0.95375 -5.65725,-1.47937 -9.46875,-1.71875 a 2.8287099,2.8287099 0 0 0 -0.1875,-0.0312 l -49.46875,0 a 2.8287099,2.8287099 0 0 0 -0.375,0.0312 c -1.52027,0.20219 -2.61945,0.15421 -3.1875,0.0312 -0.568045,-0.12296 -0.47671,-0.14978 -0.40625,-0.0312 0.0705,0.11853 -0.0604,-0.003 0.0937,-0.71875 0.14949,-0.69415 0.60615,-1.86584 1.375,-3.25 l 0.0625,-0.0937 9.09375,-15 87.46875,0 a 2.8287099,2.8287099 0 0 0 1.375,-0.375 c 2.76974,-1.53101 4.88241,-3.14261 5.6875,-5.75 0.40255,-1.30369 0.29506,-2.80478 -0.25,-4.03125 -0.54506,-1.22647 -1.42497,-2.18992 -2.46875,-3.0625 a 2.8287099,2.8287099 0 0 0 -1.8125,-0.6875 l -81.875,0 11.5625,-21.75 71.3125,0 a 2.8287099,2.8287099 0 0 0 1.5625,-0.5 c 2.35817,-1.56318 4.15843,-3.26058 4.875,-5.625 0.71657,-2.36442 -0.19969,-4.97689 -1.84375,-6.8125 a 2.8287099,2.8287099 0 0 0 -2.09375,-0.96875 l -67.0625,0 9.9375,-19.1875 a 2.8287099,2.8287099 0 0 0 0.3125,-1.46875 c -0.075,-1.38112 -0.26255,-2.59977 -0.875,-3.78125 -0.61245,-1.18148 -1.91406,-2.31359 -3.34375,-2.59375 -0.71358,-0.13983 -1.36307,-0.15633 -2,-0.0625 z"
               id="path4661"
               style="font-size:98.47740936px;font-style:italic;font-variant:normal;font-weight:normal;font-stretch:normal;text-align:start;line-height:125%;writing-mode:lr-tb;text-anchor:start;opacity:0.83333333;fill:#ff6600;fill-opacity:1;stroke:none;font-family:YouYuan;-inkscape-font-specification:YouYuan Italic"
               inkscape:original="M 142.71875 732.84375 C 141.55191 732.6151 139.86587 733.38966 137.65625 735.21875 L 125.125 759.9375 L 80.59375 759.9375 C 76.454589 762.68134 75.636003 765.41262 78.09375 768.15625 L 121.375 768.15625 L 106.78125 795.59375 L 59.78125 795.59375 C 54.817506 798.33755 53.967669 801.06884 57.25 803.8125 L 101.78125 803.8125 L 91.78125 820.28125 C 84.839712 832.1708 87.300266 837.66463 99.125 836.75 L 148.59375 836.75 C 156.83964 836.75004 158.21156 839.02089 152.6875 843.59375 C 142.74384 851.82498 129.19449 860.97092 112.09375 871.03125 C 99.756846 865.5438 89.479865 861.43125 81.25 858.6875 C 75.741869 860.51666 74.497897 863.27919 77.5 866.9375 C 95.873121 874.25411 118.90184 883.86047 146.59375 895.75 C 151.82148 894.83539 153.49086 892.07288 151.59375 887.5 L 119.9375 873.78125 C 131.7943 867.3792 145.4384 857.77287 160.90625 844.96875 C 170.58554 834.90843 168.15623 829.44586 153.59375 828.53125 L 104.125 828.53125 C 97.24788 829.44586 95.607821 826.68334 99.21875 820.28125 L 109.21875 803.8125 L 198.25 803.8125 C 203.21354 801.06884 204.06338 798.33755 200.78125 795.59375 L 114.1875 795.59375 L 128.78125 768.15625 L 201.78125 768.15625 C 205.92021 765.41262 206.73877 762.68134 204.28125 759.9375 L 132.5625 759.9375 L 144.65625 736.59375 C 144.53217 734.30737 143.88559 733.0724 142.71875 732.84375 z "
               inkscape:radius="2.8284271"
               sodipodi:type="inkscape:offset" />
            <path
               transform="translate(114,167.06612)"
               d="m 311.625,732.1875 c -19.64376,2.72131 -43.27303,5.02114 -70.875,6.84375 -0.0632,-0.005 -0.16074,0 -0.125,0 0.0722,0 -0.0998,0.0222 -0.25,0.0312 -0.093,0.006 -0.20052,0.006 -0.15625,0 l 0,0.0312 a 2.8291126,2.8291126 0 0 0 -1.03125,0.3125 c -2.78825,1.54127 -4.95462,3.19786 -5.78125,5.875 -0.4288,1.38873 -0.31631,2.94463 0.25,4.21875 0.55599,1.25092 1.45351,2.25541 2.53125,3.15625 a 2.8291126,2.8291126 0 0 0 0.40625,0.28125 c -0.10522,-0.0611 0.48775,0.23326 0.375,0.1875 -0.11275,-0.0458 0.5243,0.18576 0.40625,0.15625 -0.11805,-0.0295 0.55852,0.0752 0.4375,0.0625 -0.0372,-0.004 0.0582,-0.001 0.125,0 0.0167,3.2e-4 0.0117,-5.2e-4 0.0312,0 0.15658,0.004 0.32483,-0.003 0.25,0 0.064,9.3e-4 0.16079,-0.002 0.125,0 -6.4e-4,5.1e-4 0.0402,-6e-4 0.0312,0 a 2.8291126,2.8291126 0 0 0 0.0312,0 c 9.4916,-0.78906 19.00933,-1.58508 28.5,-2.375 l -7.25,23.71875 -34.84375,0 0,0.0312 c -0.13133,9.7e-4 -0.2232,0.004 -0.21875,0 6.4e-4,-5.1e-4 -0.0402,6e-4 -0.0312,0 a 2.8291126,2.8291126 0 0 0 -0.6875,0.125 c 0.12441,-0.0402 -0.55444,0.21472 -0.4375,0.15625 0.099,-0.0495 -0.24293,0.18386 -0.3125,0.21875 -0.0127,0.006 -0.0789,0.0429 -0.0625,0.0312 -2.34679,1.56461 -4.19388,3.2967 -4.9375,5.71875 -0.75531,2.46013 0.17196,5.16135 1.875,7.0625 a 2.8291126,2.8291126 0 0 0 0.46875,0.4375 c -0.0164,-0.0116 0.0498,0.0249 0.0625,0.0312 0.0696,0.0349 0.41145,0.26823 0.3125,0.21875 0.0116,0.008 0.0805,0.0403 0.0625,0.0312 0.0702,0.0223 0.48083,0.1592 0.375,0.125 0.0115,0.006 0.0811,0.0372 0.0625,0.0312 a 2.8291126,2.8291126 0 0 0 0.6875,0.125 c -0.009,-6e-4 0.0319,5.1e-4 0.0312,0 -0.004,-0.004 0.0874,-9.7e-4 0.21875,0 l 0,0.0312 30.15625,0 c -14.34772,22.37544 -32.3269,42.08138 -54.25,58.96875 a 2.8291126,2.8291126 0 0 0 -0.125,0.125 2.8291126,2.8291126 0 0 0 -0.15625,0.125 c -0.0335,0.0298 -0.0803,0.0803 -0.0625,0.0625 a 2.8291126,2.8291126 0 0 0 -0.0625,0.0937 c -0.071,0.0789 -0.15713,0.16392 -0.125,0.125 a 2.8291126,2.8291126 0 0 0 -0.0625,0.0625 2.8291126,2.8291126 0 0 0 0,0.0312 2.8291126,2.8291126 0 0 0 -0.0937,0.15625 c -0.0848,0.14402 -0.19111,0.28846 -0.15625,0.21875 a 2.8291126,2.8291126 0 0 0 -0.0312,0.0937 c -0.0421,0.11487 -0.15666,0.4417 -0.125,0.34375 -0.54489,1.16582 -0.99048,2.27581 -1.1875,3.375 -0.22097,1.23279 -0.22716,2.65876 0.5625,4 0.80436,1.36619 2.2707,2.09469 3.5625,2.3125 1.314,0.22155 2.51169,0.0827 3.8125,-0.1875 a 2.8291126,2.8291126 0 0 0 0.3125,-0.0937 c -0.12441,0.0402 0.55444,-0.21472 0.4375,-0.15625 -0.11694,0.0585 0.48181,-0.3254 0.375,-0.25 a 2.8291126,2.8291126 0 0 0 0.0312,-0.0312 c 15.49741,-11.25377 28.94575,-23.94092 40.46875,-37.90625 l -22.3125,72.9375 a 2.8291126,2.8291126 0 0 0 -0.0937,0.65625 c 6e-4,-0.009 -5.1e-4,0.0319 0,0.0312 6e-4,-0.009 -5.1e-4,0.0319 0,0.0312 6e-4,-0.009 -5.1e-4,0.0319 0,0.0312 0.003,0.11834 0.006,0.40198 0,0.3125 -5.1e-4,-6.4e-4 6e-4,0.0402 0,0.0312 -5.1e-4,-6.4e-4 6e-4,0.0402 0,0.0312 -5.1e-4,-6.4e-4 6e-4,0.0402 0,0.0312 a 2.8291126,2.8291126 0 0 0 0.0625,0.46875 c 0.32205,1.37302 0.72688,2.59737 1.59375,3.71875 0.90755,1.17401 2.45363,2.0625 4.03125,2.0625 3.01381,0 4.95738,-1.97889 7.09375,-4.5 a 2.8291126,2.8291126 0 0 0 0.28125,-0.40625 c -0.0474,0.0798 0.19485,-0.36565 0.15625,-0.28125 -0.0386,0.0844 0.15435,-0.40055 0.125,-0.3125 -0.009,0.0271 0.0183,-0.0445 0.0312,-0.0937 L 263.5,807.3125 c 3.57256,11.37661 7.15385,22.75323 10.71875,34.125 0.0158,0.0504 0.0155,0.10588 0.0312,0.15625 a 2.8291126,2.8291126 0 0 0 0.0312,0.125 c 0.007,0.0219 0.0244,0.0406 0.0312,0.0625 a 2.8291126,2.8291126 0 0 0 0,0.0625 c -0.0402,-0.12441 0.21472,0.55444 0.15625,0.4375 -0.0585,-0.11694 0.3254,0.48181 0.25,0.375 a 2.8291126,2.8291126 0 0 0 0.125,0.1875 c -0.0525,-0.0636 0.24584,0.27709 0.1875,0.21875 -0.0583,-0.0583 0.28237,0.24002 0.21875,0.1875 l 0,-0.0312 0.0312,0 c 1.07582,0.89559 2.22898,1.59757 3.53125,1.90625 1.38135,0.32743 2.93793,0.14907 4.21875,-0.5625 2.46291,-1.36827 3.62398,-3.84345 4.5625,-6.90625 A 2.8291126,2.8291126 0 0 0 287.6875,837 c -6e-4,0.009 5.1e-4,-0.0319 0,-0.0312 -6e-4,0.009 5.1e-4,-0.0319 0,-0.0312 -6e-4,0.009 5.1e-4,-0.0319 0,-0.0312 -0.006,0.0895 -0.003,-0.19416 0,-0.3125 5.1e-4,6.4e-4 -6e-4,-0.0402 0,-0.0312 5.1e-4,6.4e-4 -6e-4,-0.0402 0,-0.0312 5.1e-4,6.4e-4 -6e-4,-0.0402 0,-0.0312 a 2.8291126,2.8291126 0 0 0 -0.0937,-0.5625 c -3.99683,-14.42909 -9.13407,-30.14086 -15.21875,-46.875 l 29.0625,0 0,-0.0312 c 0.14103,-3.2e-4 0.28138,-0.004 0.21875,0 -6.4e-4,5.1e-4 0.0402,-6e-4 0.0312,0 a 2.8291126,2.8291126 0 0 0 0.6875,-0.125 c -0.12441,0.0402 0.55444,-0.21472 0.4375,-0.15625 -0.099,0.0495 0.24293,-0.18386 0.3125,-0.21875 0.0201,-0.0133 0.0424,-0.0179 0.0625,-0.0312 2.34677,-1.56455 4.19387,-3.29665 4.9375,-5.71875 0.75533,-2.4602 -0.17224,-5.1614 -1.875,-7.0625 a 2.8291126,2.8291126 0 0 0 -0.46875,-0.4375 c 0.0164,0.0116 -0.0498,-0.0249 -0.0625,-0.0312 0.0904,0.0638 -0.24886,-0.17394 -0.3125,-0.21875 0.0175,0.009 -0.0502,-0.0273 -0.0625,-0.0312 0.0995,0.0497 -0.30924,-0.0918 -0.375,-0.125 -0.0115,-0.006 -0.0811,-0.0372 -0.0625,-0.0312 a 2.8291126,2.8291126 0 0 0 -0.6875,-0.125 c 0.009,6e-4 -0.0319,-5.1e-4 -0.0312,0 0.0626,0.004 -0.0777,3.2e-4 -0.21875,0 l 0,-0.0312 -30.46875,0 7.84375,-25.59375 c 8.80867,-0.85378 18.19687,-1.74203 28.4375,-2.59375 -6.4e-4,5.1e-4 0.0402,-6e-4 0.0312,0 a 2.8291126,2.8291126 0 0 0 0.6875,-0.125 c -0.12441,0.0402 0.55444,-0.21472 0.4375,-0.15625 -0.11694,0.0585 0.48181,-0.3254 0.375,-0.25 a 2.8291126,2.8291126 0 0 0 0.1875,-0.125 c 2.43229,-2.01343 4.17909,-3.89946 4.90625,-6.3125 0.37361,-1.23979 0.36285,-2.69322 -0.15625,-3.9375 -0.41155,-0.98648 -1.12813,-1.73332 -1.90625,-2.375 0.0525,0.0636 -0.24584,-0.27709 -0.1875,-0.21875 0.0583,0.0583 -0.28237,-0.24002 -0.21875,-0.1875 a 2.8291126,2.8291126 0 0 0 -0.21875,-0.125 2.8291126,2.8291126 0 0 0 -1.40625,-0.5 c 0.009,6e-4 -0.0319,-5.1e-4 -0.0312,0 0.009,6e-4 -0.0319,-5.1e-4 -0.0312,0 0.009,6e-4 -0.0319,-5.1e-4 -0.0312,0 0.0895,0.006 -0.19416,0.003 -0.3125,0 -0.0118,-3.2e-4 -0.025,4.2e-4 -0.0312,0 -0.006,-4.2e-4 -0.0319,5.1e-4 -0.0312,0 6.4e-4,-5.1e-4 -0.0402,6e-4 -0.0312,0 a 2.8291126,2.8291126 0 0 0 -0.1875,0 z m 55.875,0.65625 c -3.01369,0 -4.95913,1.98088 -7.09375,4.5 A 2.8291126,2.8291126 0 0 0 360.125,737.75 c 0.0474,-0.0798 -0.19485,0.36565 -0.15625,0.28125 0.0386,-0.0844 -0.15435,0.40055 -0.125,0.3125 0.009,-0.0271 -0.0183,0.0445 -0.0312,0.0937 l -40.375,131.6875 a 2.8291126,2.8291126 0 0 0 -0.0625,0.4375 2.8291126,2.8291126 0 0 0 -0.0312,0.125 c -0.59417,3.69643 -1.70016,6.41319 -3.0625,8.1875 -1.38081,1.79836 -2.96319,2.76933 -5.28125,3.21875 -4.59991,0.89182 -12.33795,-1.0601 -22.5625,-6.8125 -0.0222,-0.0125 -0.0403,-0.0187 -0.0625,-0.0312 -0.0754,-0.0464 -0.16548,-0.11399 -0.125,-0.0937 0.11694,0.0585 -0.56191,-0.19646 -0.4375,-0.15625 a 2.8291126,2.8291126 0 0 0 -0.53125,-0.125 c 0.0443,0.006 -0.0633,0.006 -0.15625,0 -0.15022,-0.009 -0.32217,-0.0312 -0.25,-0.0312 0.11685,0 -0.52204,0.047 -0.40625,0.0312 a 2.8291126,2.8291126 0 0 0 -0.125,0.0312 c -3.1487,0.55083 -5.93921,1.98924 -7.40625,4.59375 -1.36073,2.41577 -1.27168,5.28476 -0.5,8.25 -5.1e-4,-6.4e-4 6e-4,0.0402 0,0.0312 a 2.8291126,2.8291126 0 0 0 0.0937,0.59375 2.8291126,2.8291126 0 0 0 0.0937,0.3125 c -0.0325,-0.078 0.19621,0.32446 0.15625,0.25 -0.04,-0.0745 0.17203,0.35146 0.125,0.28125 -0.047,-0.0702 0.24115,0.28405 0.1875,0.21875 -0.0537,-0.0653 0.27851,0.27851 0.21875,0.21875 -0.0598,-0.0598 0.28405,0.2724 0.21875,0.21875 -0.0653,-0.0536 0.28896,0.23453 0.21875,0.1875 -0.0702,-0.047 0.35571,0.16496 0.28125,0.125 -0.0393,-0.0211 0.0341,0.0504 0.125,0.0937 0.0451,0.0215 0.08,0.0411 0.125,0.0625 11.32398,5.38477 20.16912,7.88999 27.25,7.0625 0.49662,0.0435 0.51215,0.038 0.0625,0 0.20221,0.0171 0.39269,-0.0117 0.59375,0 5.68369,0.3307 10.90904,-1.45125 14.875,-5.3125 4.08324,-3.97545 6.92983,-9.82881 8.84375,-17.40625 0.0135,-0.0536 0.0178,-0.10247 0.0312,-0.15625 L 373.09375,740.25 a 2.8291126,2.8291126 0 0 0 0.0937,-0.65625 c -6e-4,0.009 5.1e-4,-0.0319 0,-0.0312 -6e-4,0.009 5.1e-4,-0.0319 0,-0.0312 -6e-4,0.009 5.1e-4,-0.0319 0,-0.0312 -0.006,0.0895 -0.003,-0.19416 0,-0.3125 5.1e-4,6.4e-4 -6e-4,-0.0402 0,-0.0312 5.1e-4,6.4e-4 -6e-4,-0.0402 0,-0.0312 5.1e-4,6.4e-4 -6e-4,-0.0402 0,-0.0312 A 2.8291126,2.8291126 0 0 0 373.125,738.625 c -0.32208,-1.37281 -0.73052,-2.59955 -1.59375,-3.71875 -0.9061,-1.17479 -2.4595,-2.0625 -4.03125,-2.0625 z m -40.25,10.3125 c -2.46588,0 -4.40622,1.41783 -6.3125,3.28125 0.0687,-0.0464 -0.28269,0.24023 -0.21875,0.1875 -0.0719,0.0718 -0.14686,0.11434 -0.21875,0.1875 0.0586,-0.0586 -0.24023,0.28269 -0.1875,0.21875 0.0527,-0.0639 -0.23388,0.28744 -0.1875,0.21875 a 2.8291126,2.8291126 0 0 0 -0.375,0.78125 L 287.375,853.6875 a 2.8291126,2.8291126 0 0 0 -0.0937,0.65625 c 6e-4,-0.009 -5.1e-4,0.0319 0,0.0312 6e-4,-0.009 -5.1e-4,0.0319 0,0.0312 6e-4,-0.009 -5.1e-4,0.0319 0,0.0312 0.003,0.11834 0.006,0.40198 0,0.3125 -5.1e-4,-6.4e-4 6e-4,0.0402 0,0.0312 -5.1e-4,-6.4e-4 6e-4,0.0402 0,0.0312 -5.1e-4,-6.4e-4 6e-4,0.0402 0,0.0312 a 2.8291126,2.8291126 0 0 0 0.0625,0.46875 c 0.32098,1.36857 0.74652,2.62106 1.625,3.75 0.90061,1.15737 2.42342,2.03125 4,2.03125 3.01222,0 4.98094,-1.96985 7.125,-4.5 a 2.8291126,2.8291126 0 0 0 0.28125,-0.40625 c -0.0474,0.0798 0.19485,-0.36565 0.15625,-0.28125 -0.0386,0.0844 0.15435,-0.40055 0.125,-0.3125 -0.0118,0.0356 0.0103,-0.0473 0.0312,-0.125 L 333.03125,749.8125 a 2.8291126,2.8291126 0 0 0 0.0937,-0.625 c -6e-4,0.009 5.1e-4,-0.0319 0,-0.0312 -6e-4,0.009 5.1e-4,-0.0319 0,-0.0312 -6e-4,0.009 5.1e-4,-0.0319 0,-0.0312 -6e-4,0.009 5.1e-4,-0.0319 0,-0.0312 -0.005,0.0805 -0.002,-0.13734 0,-0.28125 5.1e-4,6.4e-4 -6e-4,-0.0402 0,-0.0312 5.1e-4,6.4e-4 -6e-4,-0.0402 0,-0.0312 5.1e-4,6.4e-4 -6e-4,-0.0402 0,-0.0312 5.1e-4,6.4e-4 -6e-4,-0.0402 0,-0.0312 a 2.8291126,2.8291126 0 0 0 -0.15625,-0.78125 c -0.44855,-1.2128 -1.04674,-2.30597 -1.96875,-3.1875 -0.98434,-0.94113 -2.42492,-1.53125 -3.75,-1.53125 z"
               id="path4663"
               style="font-size:98.47740936px;font-style:italic;font-variant:normal;font-weight:normal;font-stretch:normal;text-align:start;line-height:125%;writing-mode:lr-tb;text-anchor:start;opacity:0.83333333;fill:#ff6600;fill-opacity:1;stroke:none;font-family:YouYuan;-inkscape-font-specification:YouYuan Italic"
               inkscape:original="M 312 735 C 292.20084 737.74284 268.4557 740.04623 240.6875 741.875 A 0.23218147 0.23218147 0 0 0 240.65625 741.875 A 0.23218147 0.23218147 0 0 0 240.59375 741.875 A 0.23218147 0.23218147 0 0 0 240.5625 741.875 C 238.05698 743.25999 236.54778 744.65457 236.09375 746.125 C 235.86674 746.86021 235.92589 747.61454 236.25 748.34375 C 236.57411 749.07296 237.16108 749.79878 238 750.5 A 0.23218147 0.23218147 0 0 0 238.125 750.53125 A 0.23218147 0.23218147 0 0 0 238.15625 750.53125 A 0.23218147 0.23218147 0 0 0 238.1875 750.53125 C 249.07294 749.62632 259.95836 748.71778 270.84375 747.8125 L 261.75 777.53125 L 224.8125 777.53125 A 0.23218147 0.23218147 0 0 0 224.78125 777.53125 A 0.23218147 0.23218147 0 0 0 224.75 777.53125 A 0.23218147 0.23218147 0 0 0 224.6875 777.5625 C 222.59412 778.9502 221.29125 780.35494 220.84375 781.8125 C 220.39625 783.27006 220.83017 784.74568 222.09375 786.15625 A 0.23218147 0.23218147 0 0 0 222.15625 786.1875 A 0.23218147 0.23218147 0 0 0 222.21875 786.21875 A 0.23218147 0.23218147 0 0 0 222.25 786.21875 A 0.23218147 0.23218147 0 0 0 222.28125 786.21875 L 257.75 786.21875 C 242.80668 810.74175 223.51943 832.09201 199.90625 850.28125 A 0.23218147 0.23218147 0 0 0 199.875 850.34375 A 0.23218147 0.23218147 0 0 0 199.84375 850.375 C 199.28141 851.53034 198.93071 852.50991 198.78125 853.34375 C 198.63179 854.17759 198.69069 854.88089 199 855.40625 C 199.30931 855.93161 199.86395 856.25195 200.59375 856.375 C 201.32355 856.49805 202.25716 856.41968 203.375 856.1875 A 0.23218147 0.23218147 0 0 0 203.4375 856.15625 C 223.21036 841.79777 239.68331 825.19909 252.875 806.4375 L 225.96875 894.3125 A 0.23218147 0.23218147 0 0 0 225.96875 894.34375 A 0.23218147 0.23218147 0 0 0 225.96875 894.375 A 0.23218147 0.23218147 0 0 0 225.96875 894.40625 A 0.23218147 0.23218147 0 0 0 225.96875 894.4375 C 226.2414 895.59992 226.58869 896.48083 227.0625 897.09375 C 227.53631 897.70667 228.15545 898.03125 228.84375 898.03125 C 230.22035 898.03125 231.82808 896.83617 233.78125 894.53125 A 0.23218147 0.23218147 0 0 0 233.8125 894.4375 L 263.4375 797.75 C 267.95009 812.14478 272.488 826.54334 277 840.9375 A 0.23218147 0.23218147 0 0 0 277 840.96875 A 0.23218147 0.23218147 0 0 0 277.03125 841.03125 A 0.23218147 0.23218147 0 0 0 277.0625 841.0625 C 277.90142 841.76379 278.70034 842.19286 279.46875 842.375 C 280.23716 842.55714 280.98923 842.46432 281.65625 842.09375 C 282.9903 841.35262 284.0265 839.58153 284.875 836.8125 A 0.23218147 0.23218147 0 0 0 284.875 836.78125 A 0.23218147 0.23218147 0 0 0 284.875 836.75 A 0.23218147 0.23218147 0 0 0 284.875 836.71875 A 0.23218147 0.23218147 0 0 0 284.875 836.6875 C 280.59147 821.22337 275.08714 804.39165 268.375 786.21875 L 301.4375 786.21875 A 0.23218147 0.23218147 0 0 0 301.46875 786.21875 A 0.23218147 0.23218147 0 0 0 301.5 786.21875 A 0.23218147 0.23218147 0 0 0 301.5625 786.1875 C 303.65581 784.79989 304.95875 783.39506 305.40625 781.9375 C 305.85375 780.47994 305.41974 779.00441 304.15625 777.59375 A 0.23218147 0.23218147 0 0 0 304.09375 777.5625 A 0.23218147 0.23218147 0 0 0 304.03125 777.53125 A 0.23218147 0.23218147 0 0 0 304 777.53125 A 0.23218147 0.23218147 0 0 0 303.96875 777.53125 L 269.65625 777.53125 L 279.1875 746.4375 C 288.49796 745.52775 298.61918 744.59748 309.5625 743.6875 A 0.23218147 0.23218147 0 0 0 309.59375 743.6875 A 0.23218147 0.23218147 0 0 0 309.625 743.6875 A 0.23218147 0.23218147 0 0 0 309.6875 743.65625 C 311.9138 741.81334 313.24812 740.17681 313.6875 738.71875 C 313.90719 737.98972 313.88608 737.31331 313.625 736.6875 C 313.36392 736.06169 312.86759 735.50654 312.15625 735.03125 A 0.23218147 0.23218147 0 0 0 312.125 735 A 0.23218147 0.23218147 0 0 0 312.09375 735 A 0.23218147 0.23218147 0 0 0 312.0625 735 A 0.23218147 0.23218147 0 0 0 312.03125 735 A 0.23218147 0.23218147 0 0 0 312 735 z M 367.5 735.6875 C 366.11906 735.6875 364.51519 736.88308 362.5625 739.1875 A 0.23218147 0.23218147 0 0 0 362.53125 739.28125 L 322.15625 870.96875 A 0.23218147 0.23218147 0 0 0 322.15625 871 C 321.51767 875.08959 320.3 878.29013 318.53125 880.59375 C 316.7625 882.89737 314.44025 884.31101 311.53125 884.875 C 305.71326 886.00298 297.52568 883.65124 287 877.71875 A 0.23218147 0.23218147 0 0 0 286.9375 877.6875 A 0.23218147 0.23218147 0 0 0 286.90625 877.6875 A 0.23218147 0.23218147 0 0 0 286.84375 877.6875 C 284.18906 878.15191 282.34894 879.20139 281.40625 880.875 C 280.46356 882.54861 280.43142 884.78471 281.25 887.5625 A 0.23218147 0.23218147 0 0 0 281.25 887.59375 A 0.23218147 0.23218147 0 0 0 281.375 887.71875 C 292.86907 893.19761 301.64163 895.4983 307.78125 894.59375 C 307.80247 894.59561 307.82256 894.59196 307.84375 894.59375 C 313.09063 895.03814 317.53671 893.52563 321.09375 890.0625 C 324.66515 886.58538 327.35139 881.18615 329.1875 873.84375 L 370.375 739.40625 A 0.23218147 0.23218147 0 0 0 370.375 739.375 A 0.23218147 0.23218147 0 0 0 370.375 739.34375 A 0.23218147 0.23218147 0 0 0 370.375 739.3125 A 0.23218147 0.23218147 0 0 0 370.375 739.28125 C 370.1023 738.11892 369.75547 737.23984 369.28125 736.625 C 368.80703 736.01016 368.19047 735.6875 367.5 735.6875 z M 327.25 746 C 325.90178 746 324.34829 746.93206 322.53125 748.78125 A 0.23218147 0.23218147 0 0 0 322.46875 748.84375 A 0.23218147 0.23218147 0 0 0 322.46875 748.875 L 290.09375 854.53125 A 0.23218147 0.23218147 0 0 0 290.09375 854.5625 A 0.23218147 0.23218147 0 0 0 290.09375 854.59375 A 0.23218147 0.23218147 0 0 0 290.09375 854.625 A 0.23218147 0.23218147 0 0 0 290.09375 854.65625 C 290.36644 855.81892 290.71054 856.69956 291.1875 857.3125 C 291.66446 857.92544 292.27699 858.25 292.96875 858.25 C 294.35226 858.25 295.9841 857.05516 297.9375 854.75 A 0.23218147 0.23218147 0 0 0 297.96875 854.65625 L 330.3125 749 A 0.23218147 0.23218147 0 0 0 330.3125 748.96875 A 0.23218147 0.23218147 0 0 0 330.3125 748.9375 A 0.23218147 0.23218147 0 0 0 330.3125 748.90625 A 0.23218147 0.23218147 0 0 0 330.3125 748.875 A 0.23218147 0.23218147 0 0 0 330.3125 748.84375 C 329.96649 747.90821 329.53963 747.20481 329.03125 746.71875 C 328.52287 746.23269 327.92411 746 327.25 746 z "
               inkscape:radius="2.8288298"
               sodipodi:type="inkscape:offset" />
            <path
               transform="translate(-37.52288,169.44497)"
               d="m 572.59375,736.6875 c -5.69541,8e-5 -10.88924,1.65718 -14.96875,5.03125 -4.07951,3.37407 -6.96793,8.26128 -8.8125,14.28125 l -36.96875,120.71875 c -1.97118,6.43312 -2.52629,11.8651 0.0937,16.28125 1.31002,2.20808 3.51358,3.86122 5.9375,4.6875 2.31539,0.78929 4.85661,0.9337 7.625,0.71875 l 0.375,0 103.53125,0 0,-0.0312 c 7.65783,0.85286 14.84162,-3.14035 20.21875,-10.53125 5.51801,-7.58455 9.89687,-18.74755 13.625,-33.65625 a 4.0410144,4.0410144 0 0 0 0.0312,-1.90625 c -0.34757,-1.48158 -0.808,-2.83422 -1.8125,-4.125 -1.0045,-1.29078 -2.91997,-2.40625 -4.78125,-2.40625 -3.72257,0 -5.66163,2.23164 -7.875,4.84375 a 4.0410144,4.0410144 0 0 0 -0.84375,1.6875 C 645.21044,863.91672 641.98827,872.25006 638.75,877 c -1.61914,2.37497 -3.21235,3.82884 -4.5625,4.5625 -1.35015,0.73366 -2.45058,0.88511 -3.9375,0.59375 a 4.0410144,4.0410144 0 0 0 -0.78125,-0.0625 l -98.96875,0 a 4.0410144,4.0410144 0 0 0 -0.53125,0.0312 c -1.34331,0.17864 -2.21242,0.0747 -2.5625,-0.0312 -0.35008,-0.10591 -0.1911,-0.0473 -0.21875,-0.0937 -0.0553,-0.0929 -0.4604,-2.01196 0.65625,-5.65625 l 17.625,-57.5 100.5625,0 c 0.11774,0.0103 0.22637,-0.009 0.34375,0 5.85857,0.44097 11.25884,-0.93134 15.375,-4.34375 4.14263,-3.43435 6.82436,-8.58941 8.375,-14.96875 0.021,-0.0862 0.042,-0.1633 0.0625,-0.25 L 682.65625,758.625 c 0.0331,-0.0869 0.0613,-0.1634 0.0937,-0.25 2.22033,-5.92141 2.87381,-11.2448 0.28125,-15.59375 -2.63047,-4.41255 -7.91866,-6.09367 -13.96875,-6.09375 l -96.46875,0 z m -0.0625,16.28125 36.59375,0 -15.1875,49.5625 -43.46875,0 12.6875,-41.40625 c 0.95907,-3.13006 2.23832,-5.10767 3.6875,-6.3125 1.44918,-1.20483 3.14106,-1.8437 5.6875,-1.84375 z m 52.5,0 39.03125,0 c 3.04214,5e-5 3.65673,0.67666 3.71875,0.78125 0.062,0.10459 0.40177,1.50397 -0.90625,4.625 a 4.0410144,4.0410144 0 0 0 -0.15625,0.375 l -10.90625,35.65625 a 4.0410144,4.0410144 0 0 0 -0.0937,0.375 c -0.73187,3.54853 -1.92336,5.58218 -3.1875,6.625 -1.26414,1.04282 -2.83143,1.51406 -5.625,1.15625 a 4.0410144,4.0410144 0 0 0 -0.5,-0.0312 l -36.5625,0 15.1875,-49.5625 z"
               id="path4665"
               style="font-size:98.47740936px;font-style:italic;font-variant:normal;font-weight:normal;font-stretch:normal;text-align:start;line-height:125%;writing-mode:lr-tb;text-anchor:start;opacity:0.83333333;fill:#ff6600;fill-opacity:1;stroke:none;font-family:YouYuan;-inkscape-font-specification:YouYuan Italic"
               inkscape:original="M 572.59375 740.71875 C 562.69846 740.71889 556.05028 746.21269 552.6875 757.1875 L 515.71875 877.90625 C 512.07568 889.79575 515.32452 895.28958 525.5 894.375 L 629.40625 894.375 C 642.03927 896.20415 652.02525 882.48525 659.34375 853.21875 C 658.27097 848.64588 655.78108 848.64588 651.90625 853.21875 C 646.26918 876.99778 638.80338 887.95413 629.46875 886.125 L 530.5 886.125 C 523.62292 887.03956 521.44662 883.38744 523.96875 875.15625 L 542.46875 814.8125 L 646.375 814.8125 C 656.81445 815.72712 663.43136 810.23334 666.25 798.34375 L 678.875 757.1875 C 683.06227 746.21269 679.78215 740.71889 669.0625 740.71875 L 572.59375 740.71875 z M 572.53125 748.9375 L 614.59375 748.9375 L 596.9375 806.5625 L 545 806.5625 L 559.28125 759.9375 C 561.52307 752.62099 565.93436 748.93762 572.53125 748.9375 z M 622.03125 748.9375 L 664.0625 748.9375 C 671.48375 748.93762 673.66008 752.62099 670.59375 759.9375 L 659.6875 795.59375 C 657.98983 803.82502 653.54729 807.47714 646.40625 806.5625 L 604.375 806.5625 L 622.03125 748.9375 z "
               inkscape:radius="4.0406103"
               sodipodi:type="inkscape:offset" />
            <path
               transform="translate(122.08122,169.44497)"
               sodipodi:type="inkscape:offset"
               inkscape:radius="4.0406103"
               inkscape:original="M 572.59375 740.71875 C 562.69846 740.71889 556.05028 746.21269 552.6875 757.1875 L 515.71875 877.90625 C 512.07568 889.79575 515.32452 895.28958 525.5 894.375 L 629.40625 894.375 C 642.03927 896.20415 652.02525 882.48525 659.34375 853.21875 C 658.27097 848.64588 655.78108 848.64588 651.90625 853.21875 C 646.26918 876.99778 638.80338 887.95413 629.46875 886.125 L 530.5 886.125 C 523.62292 887.03956 521.44662 883.38744 523.96875 875.15625 L 542.46875 814.8125 L 646.375 814.8125 C 656.81445 815.72712 663.43136 810.23334 666.25 798.34375 L 678.875 757.1875 C 683.06227 746.21269 679.78215 740.71889 669.0625 740.71875 L 572.59375 740.71875 z M 572.53125 748.9375 L 614.59375 748.9375 L 596.9375 806.5625 L 545 806.5625 L 559.28125 759.9375 C 561.52307 752.62099 565.93436 748.93762 572.53125 748.9375 z M 622.03125 748.9375 L 664.0625 748.9375 C 671.48375 748.93762 673.66008 752.62099 670.59375 759.9375 L 659.6875 795.59375 C 657.98983 803.82502 653.54729 807.47714 646.40625 806.5625 L 604.375 806.5625 L 622.03125 748.9375 z "
               style="font-size:98.47740936px;font-style:italic;font-variant:normal;font-weight:normal;font-stretch:normal;text-align:start;line-height:125%;writing-mode:lr-tb;text-anchor:start;opacity:0.83333333;fill:#ff6600;fill-opacity:1;stroke:none;font-family:YouYuan;-inkscape-font-specification:YouYuan Italic"
               id="path4667"
               d="m 572.59375,736.6875 c -5.69541,8e-5 -10.88924,1.65718 -14.96875,5.03125 -4.07951,3.37407 -6.96793,8.26128 -8.8125,14.28125 l -36.96875,120.71875 c -1.97118,6.43312 -2.52629,11.8651 0.0937,16.28125 1.31002,2.20808 3.51358,3.86122 5.9375,4.6875 2.31539,0.78929 4.85661,0.9337 7.625,0.71875 l 0.375,0 103.53125,0 0,-0.0312 c 7.65783,0.85286 14.84162,-3.14035 20.21875,-10.53125 5.51801,-7.58455 9.89687,-18.74755 13.625,-33.65625 a 4.0410144,4.0410144 0 0 0 0.0312,-1.90625 c -0.34757,-1.48158 -0.808,-2.83422 -1.8125,-4.125 -1.0045,-1.29078 -2.91997,-2.40625 -4.78125,-2.40625 -3.72257,0 -5.66163,2.23164 -7.875,4.84375 a 4.0410144,4.0410144 0 0 0 -0.84375,1.6875 C 645.21044,863.91672 641.98827,872.25006 638.75,877 c -1.61914,2.37497 -3.21235,3.82884 -4.5625,4.5625 -1.35015,0.73366 -2.45058,0.88511 -3.9375,0.59375 a 4.0410144,4.0410144 0 0 0 -0.78125,-0.0625 l -98.96875,0 a 4.0410144,4.0410144 0 0 0 -0.53125,0.0312 c -1.34331,0.17864 -2.21242,0.0747 -2.5625,-0.0312 -0.35008,-0.10591 -0.1911,-0.0473 -0.21875,-0.0937 -0.0553,-0.0929 -0.4604,-2.01196 0.65625,-5.65625 l 17.625,-57.5 100.5625,0 c 0.11774,0.0103 0.22637,-0.009 0.34375,0 5.85857,0.44097 11.25884,-0.93134 15.375,-4.34375 4.14263,-3.43435 6.82436,-8.58941 8.375,-14.96875 0.021,-0.0862 0.042,-0.1633 0.0625,-0.25 L 682.65625,758.625 c 0.0331,-0.0869 0.0613,-0.1634 0.0937,-0.25 2.22033,-5.92141 2.87381,-11.2448 0.28125,-15.59375 -2.63047,-4.41255 -7.91866,-6.09367 -13.96875,-6.09375 l -96.46875,0 z m -0.0625,16.28125 36.59375,0 -15.1875,49.5625 -43.46875,0 12.6875,-41.40625 c 0.95907,-3.13006 2.23832,-5.10767 3.6875,-6.3125 1.44918,-1.20483 3.14106,-1.8437 5.6875,-1.84375 z m 52.5,0 39.03125,0 c 3.04214,5e-5 3.65673,0.67666 3.71875,0.78125 0.062,0.10459 0.40177,1.50397 -0.90625,4.625 a 4.0410144,4.0410144 0 0 0 -0.15625,0.375 l -10.90625,35.65625 a 4.0410144,4.0410144 0 0 0 -0.0937,0.375 c -0.73187,3.54853 -1.92336,5.58218 -3.1875,6.625 -1.26414,1.04282 -2.83143,1.51406 -5.625,1.15625 a 4.0410144,4.0410144 0 0 0 -0.5,-0.0312 l -36.5625,0 15.1875,-49.5625 z" />
          </g>
        </g>
      </g>
      <text
         xml:space="preserve"
         style="font-size:56.43200302px;font-style:normal;font-variant:normal;font-weight:normal;font-stretch:normal;text-align:start;line-height:125%;writing-mode:lr-tb;text-anchor:start;fill:#ff6600;fill-opacity:1;stroke:none;font-family:Yahei Monaco;-inkscape-font-specification:Yahei Monaco"
         x="53.860619"
         y="488.46985"
         id="text3612"
         sodipodi:linespacing="125%"
         transform="scale(0.99030138,1.0097936)"><tspan
           sodipodi:role="line"
           x="53.860619"
           y="488.46985"
           id="tspan3618">www.zhuanli88.com</tspan><tspan
           sodipodi:role="line"
           x="53.860619"
           y="559.00983"
           id="tspan3616" /></text>
    </g>
  </g>
</svg>
